<?xml version="1.0" encoding="UTF-8" standalone="no"?>
<svg width="67px" height="64px" viewBox="0 0 67 64" version="1.1" xmlns="http://www.w3.org/2000/svg" xmlns:xlink="http://www.w3.org/1999/xlink">
    <!-- Generator: Sketch 3.7 (28169) - http://www.bohemiancoding.com/sketch -->
    <title>Slice 1</title>
    <desc>Created with Sketch.</desc>
    <defs></defs>
    <g id="Page-1" stroke="none" stroke-width="1" fill="none" fill-rule="evenodd">
        <g id="finish">
            <g id="svg2">
                <g id="layer1">
                    <polygon id="path3400" fill="#FDFEFE" points="0.99 31.78 0.99 0.53 33.49 0.53 65.99 0.53 65.99 31.78 65.99 63.03 33.49 63.03 0.99 63.03"></polygon>
                    <path d="M0.99,31.78 L0.99,0.53 L5.8563,0.53 C9.1406,0.53 10.9692,1.17278 11.4813,2.5072 C12.471,5.0863 12.471,58.4732 11.4813,61.0532 C10.96923,62.3876 9.1406,63.0304 5.8563,63.0304 L0.99,63.0304 L0.99,31.7804 L0.99,31.78 Z M14.039,40.1573 C13.69652,39.26481 13.57355,30.6867 13.76573,21.0953 L14.11515,3.6553 L37.24015,3.29998 C49.95915,3.10455 61.62915,3.25548 63.17415,3.63537 C65.67495,4.25032 65.81255,4.63201 64.42955,7.11567 C63.57519,8.64997 60.14905,12.78897 56.81595,16.31337 L50.75565,22.72147 L58.43845,31.19917 C64.09715,37.44337 65.69235,39.94887 64.49325,40.70937 C63.59787,41.27729 52.01925,41.75057 38.76325,41.76107 C20.14425,41.77587 14.52025,41.41108 14.03925,40.15747 L14.039,40.1573 Z" id="path3398" fill="#E3EAEE"></path>
                    <path d="M0.99,31.78 L0.99,0.53 L5.99,0.53 L10.99,0.53 L10.99,31.78 L10.99,63.03 L5.99,63.03 L0.99,63.03 L0.99,31.78 L0.99,31.78 Z M15.287,38.9014 C14.94328,38.00567 14.82031,29.99 15.01373,21.0894 L15.36542,4.9054 L40.98342,4.56604 L66.60142,4.22669 L58.17082,12.72239 C53.53402,17.39499 49.74022,21.78409 49.74022,22.47589 C49.74022,23.16766 53.10552,27.06389 57.21862,31.13409 C62.42462,36.28579 64.22882,38.83189 63.15612,39.51329 C62.3086,40.05163 51.33212,40.50071 38.76312,40.51124 C21.12612,40.52604 15.76912,40.15873 15.28612,38.90174 L15.287,38.9014 Z" id="path3396" fill="#C4D3DC"></path>
                    <path d="M0.99,31.78 L0.99,0.53 L5.365,0.53 L9.74,0.53 L9.74,31.78 L9.74,63.03 L5.365,63.03 L0.99,63.03 L0.99,31.78 L0.99,31.78 Z M15.99,22.405 L15.99,5.53 L39.115,5.53 C51.834,5.53 62.24,5.90102 62.24,6.35448 C62.24,6.80795 59.1462,10.42248 55.365,14.38668 C51.5838,18.35088 48.49,22.07728 48.49,22.66738 C48.49,23.25753 51.5838,26.79568 55.365,30.52998 C59.1462,34.26428 62.24,37.76068 62.24,38.29978 C62.24,38.83889 51.834,39.27998 39.115,39.27998 L15.99,39.27998 L15.99,22.40498 L15.99,22.405 Z" id="path3394" fill="#B2C6D1"></path>
                    <path d="M0.99,31.78 L0.99,0.53 L5.365,0.53 L9.74,0.53 L9.74,31.78 L9.74,63.03 L5.365,63.03 L0.99,63.03 L0.99,31.78 L0.99,31.78 Z M16.534,37.6447 C16.18886,36.7453 16.06589,29.2922 16.26073,21.0827 L16.61497,6.1557 L38.80297,5.81436 C56.44097,5.54301 60.99097,5.80936 60.99097,7.11136 C60.99097,8.01244 58.17847,11.51986 54.74097,14.90576 C51.30347,18.29156 48.49097,21.94786 48.49097,23.03076 C48.49097,24.11366 51.27817,27.74506 54.68477,31.10046 C58.09137,34.45586 60.58947,37.66906 60.23597,38.24096 C59.88253,38.81284 50.04597,39.28076 38.37797,39.28076 C22.05497,39.28076 17.01797,38.90364 16.53497,37.64546 L16.534,37.6447 Z" id="path3392" fill="#A4BCC9"></path>
                    <path d="M0.99,31.78 L0.99,0.53 L5.0525,0.53 L9.115,0.53 L9.115,31.78 L9.115,63.03 L5.0525,63.03 L0.99,63.03 L0.99,31.78 L0.99,31.78 Z M17.24,22.405 L17.24,6.78 L39.388,6.78 L61.536,6.78 L54.3876,14.0038 C50.456,17.9769 47.2392,21.948 47.2392,22.8286 C47.2392,23.7092 50.1333,27.4898 53.6705,31.2299 L60.1018,38.0301 L38.6708,38.0301 L17.2398,38.0301 L17.2398,22.4051 L17.24,22.405 Z" id="path3390" fill="#96B2C1"></path>
                    <path d="M0.99,31.78 L0.99,0.53 L5.0525,0.53 L9.115,0.53 L9.115,31.78 L9.115,63.03 L5.0525,63.03 L0.99,63.03 L0.99,31.78 L0.99,31.78 Z M17.781,36.3872 C17.43428,35.48364 17.31131,28.593 17.50773,21.0752 L17.86488,7.4052 L38.17688,7.06174 C49.34888,6.87283 58.48888,7.17759 58.48888,7.73898 C58.48888,8.30036 55.95768,11.24388 52.86388,14.28018 C49.76338,17.32308 47.23888,20.96958 47.23888,22.40518 C47.23888,23.84078 49.76338,27.48728 52.86388,30.53018 C55.95768,33.56648 58.48888,36.49608 58.48888,37.04048 C58.48888,37.58484 49.47128,38.03022 38.44988,38.03022 C23.04888,38.03022 18.26488,37.64996 17.77988,36.38742 L17.781,36.3872 Z" id="path3388" fill="#91AEBE"></path>
                    <path d="M0.99,31.78 L0.99,0.53 L5.365,0.53 C7.7712,0.53 9.74,1.0925 9.74,1.78 C9.74,2.4675 9.1775,3.03 8.49,3.03 C7.6929,3.03 7.24,13.447 7.24,31.78 C7.24,50.113 7.6929,60.53 8.49,60.53 C9.1775,60.53 9.74,61.0925 9.74,61.78 C9.74,62.4675 7.7712,63.03 5.365,63.03 L0.99,63.03 L0.99,31.78 L0.99,31.78 Z M18.49,22.405 L18.49,8.03 L38.036,8.03 L57.582,8.03 L51.786,14.2264 C48.5982,17.6344 45.99,21.412 45.99,22.621 C45.99,23.83 48.6407,27.5103 51.8805,30.7996 L57.771,36.78 L38.13,36.78 L18.489,36.78 L18.489,22.405 L18.49,22.405 Z" id="path3386" fill="#8BAABB"></path>
                </g>
            </g>
        </g>
    </g>
</svg>