<?xml version="1.0" encoding="UTF-8" standalone="no"?>
<svg width="371px" height="435px" viewBox="0 0 371 435" version="1.1" xmlns="http://www.w3.org/2000/svg" xmlns:xlink="http://www.w3.org/1999/xlink">
    <!-- Generator: Sketch 3.6.1 (26313) - http://www.bohemiancoding.com/sketch -->
    <title>Untitled</title>
    <desc>Created with Sketch.</desc>
    <defs></defs>
    <g id="Page-1" stroke="none" stroke-width="1" fill="none" fill-rule="evenodd">
        <g id="login-page-logo">
            <g id="svg2">
                <g id="layer1">
                    <path d="M137.31456,417.68401 C76.36359,335.64146 29.3369,255.33638 19.09262,215.80243 C15.41098,201.59452 11.19969,202.99651 57.559,202.99651 L97.97966,202.99651 L103.23831,213.60892 C110.1458,227.54881 119.70292,237.8909 130.66371,243.28688 C138.27654,247.03466 139.94442,247.37151 150.88835,247.37151 C161.84768,247.37151 163.49374,247.03782 171.16583,243.26086 C183.72903,237.07602 194.90838,223.65805 200.80711,207.68401 L202.07647,204.24651 L240.79004,204.24651 L279.5036,204.24651 L277.55752,210.80901 C260.77296,267.40933 217.80184,346.80096 169.55751,410.34527 C150.89852,434.92169 151.43889,434.24651 150.42845,434.24651 C149.98335,434.24651 144.0821,426.79338 137.31456,417.68401 L137.31456,417.68401 Z M322.13835,197.92381 C318.3571,197.445 310.68015,195.86191 305.07848,194.40585 C276.27726,186.91944 262.60374,184.74965 234.01335,183.12881 C209.74217,181.75285 206.05034,179.62145 192.37074,159.08741 C188.87739,153.84366 183.66061,147.53446 180.77789,145.06695 C167.68646,133.86119 143.61537,132.73022 123.83252,142.39144 C109.83738,149.22615 97.66583,163.96971 92.27733,180.61466 L90.82275,185.10782 L46.33905,185.994 C21.87302,186.4814 1.58239,186.60721 1.24876,186.27358 C0.48088,185.50571 12.80771,164.44476 22.18884,150.49651 C58.92287,95.87887 100.68699,62.94018 137.68559,59.40609 C157.19274,57.54278 180.51265,61.13536 196.5402,68.47301 C207.60288,73.53767 214.38708,78.79167 231.51335,95.55783 C240.45085,104.3074 249.56354,112.37297 251.76378,113.48132 C256.23105,115.73168 262.8355,116.15231 264.00445,114.26092 C265.33691,112.10495 259.84676,101.65593 252.79705,92.93064 C235.5562,71.59197 204.95697,53.6721 174.63835,47.15843 C158.76075,43.74727 133.4645,44.04774 120.28604,47.80402 C88.23716,56.93898 55.8341,80.54793 26.52096,116.12151 C22.55539,120.93401 18.81763,125.41028 18.21482,126.06877 C17.61202,126.72727 18.02769,124.19602 19.13853,120.44378 C27.88678,90.89368 43.4763,64.14057 63.97659,43.49735 C82.09963,25.24797 99.18269,14.65491 122.13835,7.43172 C140.59135,1.62534 154.5675,0.14862 183.38835,0.96007 C234.30492,2.39363 265.47639,10.84219 284.08919,28.25356 C296.01519,39.40974 298.56459,46.2405 299.81634,70.39224 C301.87081,110.03226 309.17903,131.07051 327.57321,150.29628 C334.43359,157.4668 341.64816,162.4244 355.1491,169.24543 C368.01496,175.7456 372.08087,180.00992 369.92476,184.74209 C365.97718,193.4061 340.95962,200.30711 322.13835,197.92381 L322.13835,197.92381 Z" id="path3388" fill="#FEFEFE"></path>
                    <path d="M137.39585,417.68401 C124.09793,399.68433 111.75606,382.02068 115.45446,386.28155 C116.72435,387.74457 125.00017,398.86892 133.84518,411.00232 C147.55826,429.81366 150.20443,432.83282 151.81048,431.49992 C155.78409,428.20211 184.49385,388.89173 198.18926,367.99651 C211.76659,347.28145 216.5606,340.49873 213.65046,346.12151 C209.72055,353.71466 182.97223,392.67432 169.55671,410.34527 C150.91045,434.90618 151.43821,434.24651 150.43487,434.24651 C149.9933,434.24651 144.12574,426.79338 137.39585,417.68401 L137.39585,417.68401 Z M107.13835,375.49651 C104.33712,371.37151 102.32645,367.99651 102.6702,367.99651 C103.01395,367.99651 105.58712,371.37151 108.38835,375.49651 C111.18958,379.62151 113.20025,382.99651 112.8565,382.99651 C112.51275,382.99651 109.93958,379.62151 107.13835,375.49651 L107.13835,375.49651 Z M93.64409,355.80901 C85.51117,343.63815 83.58343,340.44241 85.53826,342.37151 C87.52872,344.33577 102.27575,366.74651 101.57783,366.74651 C101.23408,366.74651 97.6639,361.82463 93.64409,355.80901 L93.64409,355.80901 Z M215.88835,340.49651 C216.62422,339.12151 217.50756,337.99651 217.85131,337.99651 C218.19506,337.99651 217.87421,339.12151 217.13835,340.49651 C216.40248,341.87151 215.51914,342.99651 215.17539,342.99651 C214.83164,342.99651 215.15249,341.87151 215.88835,340.49651 L215.88835,340.49651 Z M77.41823,330.80901 C68.98392,317.6534 57.80624,299.15655 56.03709,295.42743 C53.80359,290.71956 56.26752,294.46787 68.8185,314.87151 C75.16208,325.18401 81.38134,335.16838 82.63908,337.05901 C83.89682,338.94963 84.63409,340.49651 84.27748,340.49651 C83.92086,340.49651 80.8342,336.13713 77.41823,330.80901 L77.41823,330.80901 Z M221.25515,331.43401 C222.96255,328.51213 226.44261,322.32463 228.98864,317.68401 C233.66054,309.16856 236.47371,305.78366 232.62469,313.30901 C228.57687,321.22299 219.41046,336.74651 218.78518,336.74651 C218.43626,336.74651 219.54775,334.35588 221.25515,331.43401 L221.25515,331.43401 Z M243.65836,289.92768 C248.61331,279.98984 252.86338,272.05487 253.10295,272.29445 C253.65397,272.84547 236.0869,307.99651 235.2605,307.99651 C234.92436,307.99651 238.7034,299.86553 243.65836,289.92768 L243.65836,289.92768 Z M49.26195,283.93401 C42.98878,272.64567 30.66762,247.79831 31.12431,247.35692 C31.33828,247.15012 36.67473,257.05317 42.98308,269.36371 C54.47493,291.78966 57.40149,298.58083 49.26195,283.93401 L49.26195,283.93401 Z M253.49314,269.87151 C253.49314,269.18401 254.57099,266.65276 255.88835,264.24651 C257.20571,261.84026 258.28356,260.43401 258.28356,261.12151 C258.28356,261.80901 257.20571,264.34026 255.88835,266.74651 C254.57099,269.15276 253.49314,270.55901 253.49314,269.87151 L253.49314,269.87151 Z M259.67664,256.12151 C259.67664,255.43401 260.2219,254.02776 260.88835,252.99651 C261.5548,251.96526 262.10006,251.68401 262.10006,252.37151 C262.10006,253.05901 261.5548,254.46526 260.88835,255.49651 C260.2219,256.52776 259.67664,256.80901 259.67664,256.12151 L259.67664,256.12151 Z M262.2811,249.87151 C262.3046,249.18401 263.40579,246.37151 264.72826,243.62151 C266.05074,240.87151 266.78266,240.02776 266.35476,241.74651 C265.4736,245.28587 262.21585,251.78352 262.2811,249.87151 L262.2811,249.87151 Z M146.82585,248.34226 C149.06022,248.06499 152.71647,248.06499 154.95085,248.34226 C157.18522,248.61955 155.3571,248.84642 150.88835,248.84642 C146.4196,248.84642 144.59147,248.61955 146.82585,248.34226 L146.82585,248.34226 Z M135.88835,246.6894 C134.51902,245.76276 135.0247,245.6468 137.76335,246.25938 C142.35951,247.28747 143.35724,248.00292 140.15919,247.97737 C138.84147,247.96737 136.9196,247.38726 135.88835,246.6894 L135.88835,246.6894 Z M164.2808,246.18307 C175.5708,242.65467 188.79614,231.83547 193.91174,221.94301 C195.03419,219.77244 196.2338,217.99651 196.57755,217.99651 C198.30665,217.99651 192.23411,226.8922 186.15267,233.26795 C179.18014,240.57794 166.6279,248.07296 161.6262,247.91288 C160.1557,247.86588 161.3163,247.10955 164.2808,246.18307 L164.2808,246.18307 Z M28.5914,242.31797 C26.49704,237.72136 26.89661,236.74073 29.16122,240.91952 C30.21875,242.87092 30.8501,244.70142 30.56422,244.9873 C30.27835,245.27317 29.39058,244.07198 28.5914,242.31797 L28.5914,242.31797 Z M125.82058,241.96403 C118.20494,237.12311 108.55109,226.24357 103.55711,216.87392 C101.26952,212.58195 99.60453,208.86366 99.85714,208.61106 C100.10975,208.35845 102.22015,211.82353 104.54692,216.31125 C109.85529,226.54968 119.40923,237.09651 127.6649,241.83174 C131.15655,243.83446 133.42035,245.47832 132.69557,245.48479 C131.9708,245.49079 128.87705,243.9069 125.82058,241.96404 L125.82058,241.96403 Z M267.17664,237.37151 C267.17664,236.68401 267.7219,235.27776 268.38835,234.24651 C269.0548,233.21526 269.60006,232.93401 269.60006,233.62151 C269.60006,234.30901 269.0548,235.71526 268.38835,236.74651 C267.7219,237.77776 267.17664,238.05901 267.17664,237.37151 L267.17664,237.37151 Z M25.41777,234.82319 C24.21155,231.67982 24.56738,230.86875 26.04094,233.40276 C26.77055,234.65745 27.10419,235.94733 26.78235,236.26917 C26.46052,236.59101 25.84646,235.94031 25.41777,234.82319 L25.41777,234.82319 Z M271.612,225.18401 C274.01135,217.61979 276.96555,210.01406 277.04701,211.1913 C277.17189,212.99602 272.05489,227.99651 271.31436,227.99651 C270.9874,227.99651 271.12134,226.73088 271.612,225.18401 L271.612,225.18401 Z M21.66777,224.82319 C21.23909,223.70606 20.924,222.13492 20.96758,221.33177 C21.01118,220.52864 21.58574,221.21877 22.24444,222.86548 C22.90313,224.51217 23.21821,226.08331 22.94463,226.3569 C22.67104,226.63049 22.09646,225.94031 21.66777,224.82319 L21.66777,224.82319 Z M19.10264,216.03222 C18.64286,214.20034 18.50775,212.46045 18.8024,212.1658 C19.09704,211.87116 19.71429,213.12891 20.17406,214.9608 C20.63384,216.79268 20.76895,218.53257 20.47431,218.82722 C20.17966,219.12186 19.56241,217.86411 19.10264,216.03222 L19.10264,216.03222 Z M199.77132,211.51538 C199.69822,211.04451 200.18692,209.21638 200.85741,207.45288 L202.07647,204.24651 L241.16991,204.54055 L280.26335,204.83458 L241.436,205.18302 L202.60866,205.53147 L201.25648,208.95148 C200.51279,210.8325 199.84446,211.98625 199.77133,211.51538 L199.77132,211.51538 Z M17.33572,207.99651 C17.33572,206.27776 17.61944,205.57463 17.9662,206.43401 C18.31297,207.29338 18.31297,208.69963 17.9662,209.55901 C17.61944,210.41838 17.33572,209.71526 17.33572,207.99651 L17.33572,207.99651 Z M98.38835,205.70485 C98.38835,204.62941 87.63967,204.16917 57.45085,203.95195 L16.51335,203.65738 L57.05823,203.30932 C95.06867,202.98302 102.0706,203.48092 99.24252,206.30901 C98.77273,206.7788 98.38835,206.50692 98.38835,205.70485 L98.38835,205.70485 Z M318.72464,197.13027 C319.94085,196.81335 321.62835,196.83418 322.47464,197.17667 C323.32093,197.51908 322.32585,197.77838 320.26335,197.75291 C318.20085,197.72741 317.50843,197.44728 318.72464,197.13036 L318.72464,197.13027 Z M338.70085,197.13527 C339.90397,196.82087 341.87272,196.82087 343.07585,197.13527 C344.27897,197.44968 343.2946,197.70694 340.88835,197.70694 C338.4821,197.70694 337.49772,197.44968 338.70085,197.13527 L338.70085,197.13527 Z M313.15397,195.89305 C314.05631,195.53196 315.13444,195.57636 315.54981,195.99165 C315.96517,196.40701 315.22689,196.70245 313.90919,196.64818 C312.453,196.58818 312.15681,196.292 313.15397,195.89298 L313.15397,195.89305 Z M346.90397,195.89305 C347.80631,195.53196 348.88445,195.57636 349.29981,195.99165 C349.71517,196.40701 348.97689,196.70245 347.65919,196.64818 C346.203,196.58818 345.90681,196.292 346.90397,195.89298 L346.90397,195.89305 Z M308.15397,194.64305 C309.05631,194.28196 310.13444,194.32636 310.54981,194.74165 C310.96517,195.15701 310.22689,195.45245 308.90919,195.39818 C307.453,195.33818 307.15681,195.042 308.15397,194.64298 L308.15397,194.64305 Z M356.69331,193.00244 C362.67307,190.60141 369.63835,185.18108 369.63835,182.92828 C369.63835,180.0122 367.41074,177.32146 362.32791,174.09804 C359.20445,172.1172 357.23713,170.49651 357.95607,170.49651 C360.33064,170.49651 369.41087,177.8106 370.22645,180.38024 C370.66666,181.76725 370.42284,184.03067 369.68461,185.41007 C368.05754,188.45027 359.16881,193.79292 354.01335,194.82941 C351.92824,195.24862 353.11806,194.43731 356.69331,193.00201 L356.69331,193.00244 Z M303.15398,193.39305 C304.05631,193.03196 305.13444,193.07636 305.54981,193.49165 C305.96518,193.90701 305.22689,194.20245 303.90919,194.14818 C302.453,194.08818 302.15681,193.792 303.15398,193.39298 L303.15398,193.39305 Z M298.15398,192.14305 C299.05631,191.78196 300.13444,191.82636 300.54981,192.24165 C300.96518,192.65701 300.22689,192.95245 298.90919,192.89818 C297.453,192.83818 297.15681,192.542 298.15398,192.14298 L298.15398,192.14305 Z M293.15398,190.89305 C294.05631,190.53196 295.13444,190.57636 295.54981,190.99165 C295.96518,191.40701 295.22689,191.70245 293.90919,191.64818 C292.453,191.58818 292.15681,191.292 293.15398,190.89298 L293.15398,190.89305 Z M288.15398,189.64305 C289.05631,189.28196 290.13444,189.32636 290.54981,189.74165 C290.96518,190.15701 290.22689,190.45245 288.90919,190.39818 C287.453,190.33818 287.15681,190.042 288.15398,189.64298 L288.15398,189.64305 Z M281.82585,188.41909 C282.68523,188.07232 284.09148,188.07232 284.95085,188.41909 C285.81023,188.76585 285.1071,189.04957 283.38835,189.04957 C281.6696,189.04957 280.96648,188.76585 281.82585,188.41909 L281.82585,188.41909 Z M275.57585,187.16909 C276.43523,186.82232 277.84148,186.82232 278.70085,187.16909 C279.56023,187.51585 278.8571,187.79957 277.13835,187.79957 C275.4196,187.79957 274.71648,187.51585 275.57585,187.16909 L275.57585,187.16909 Z M0.88835,185.73542 C0.88835,185.17932 1.76313,183.63245 2.83231,182.29792 C4.70364,179.96216 4.72604,179.9753 3.43178,182.64953 L2.08729,185.42756 L19.92532,185.81171 L37.76335,186.19586 L19.32585,186.47118 C9.18522,186.62261 0.88835,186.29152 0.88835,185.73542 L0.88835,185.73542 Z M269.32585,185.91866 C270.18522,185.5719 271.59147,185.5719 272.45085,185.91866 C273.31022,186.26542 272.6071,186.54915 270.88835,186.54915 C269.1696,186.54915 268.46647,186.26542 269.32585,185.91866 L269.32585,185.91866 Z M66.20085,184.56957 C70.84147,184.32906 78.43522,184.32906 83.07585,184.56957 C87.71647,184.81008 83.9196,185.00686 74.63835,185.00686 C65.3571,185.00686 61.56022,184.81008 66.20085,184.56957 L66.20085,184.56957 Z M259.95085,184.63477 C261.15397,184.32037 263.12272,184.32037 264.32585,184.63477 C265.52897,184.94918 264.5446,185.20643 262.13835,185.20643 C259.7321,185.20643 258.74772,184.94918 259.95085,184.63477 L259.95085,184.63477 Z M246.20085,183.35112 C248.09147,183.06471 251.18522,183.06471 253.07585,183.35112 C254.96647,183.63752 253.4196,183.87186 249.63835,183.87186 C245.8571,183.87186 244.31022,183.63752 246.20085,183.35112 L246.20085,183.35112 Z M223.09824,182.09052 C225.34493,181.81232 228.71993,181.81806 230.59824,182.10322 C232.47655,182.38845 230.63834,182.61606 226.51335,182.60905 C222.38835,182.60205 220.85155,182.36867 223.09824,182.09047 L223.09824,182.09052 Z M211.51335,179.6729 C205.519,176.51834 201.10583,171.84915 193.38835,160.49646 C185.64615,149.1074 181.5609,144.77858 174.63835,140.62858 C172.2321,139.18605 170.84131,138.0037 171.54771,138.00114 C175.76814,137.98574 186.03182,147.83448 193.68823,159.24646 C202.27311,172.04236 205.47991,175.3241 212.76335,178.76735 C216.20085,180.39242 218.1696,181.70501 217.13835,181.6842 C216.1071,181.6634 213.57585,180.75831 211.51335,179.6729 L211.51335,179.6729 Z M7.79999,173.30896 C21.3939,149.56401 43.75246,119.92342 61.40434,102.24605 C72.6882,90.9459 90.29783,76.9979 97.66552,73.52478 C99.78182,72.52715 100.45881,72.42204 99.16993,73.29119 C75.24663,89.42376 58.84663,104.39797 41.91549,125.56803 C31.15549,139.02194 18.71903,156.92872 10.92925,170.18396 C8.00005,175.16833 5.33284,179.24646 5.00212,179.24646 C4.67139,179.24646 5.93043,176.57458 7.79999,173.30896 L7.79999,173.30896 Z M93.41674,175.04643 C93.33454,171.9352 102.18581,158.22075 108.08007,152.32648 C114.56886,145.83768 130.07114,136.71116 134.4938,136.77613 C135.60455,136.79243 133.35893,138.10341 129.50351,139.68938 C115.06368,145.62938 105.05224,154.57883 97.80937,168.0215 C95.40904,172.47647 93.43236,175.6377 93.41674,175.04643 L93.41674,175.04643 Z M343.26965,164.12857 C335.01759,158.85354 323.89312,148.81618 319.37245,142.56666 C317.95815,140.6115 321.51752,143.7125 327.28217,149.45778 C333.04682,155.20306 341.4068,162.00586 345.85991,164.57512 C350.31301,167.14438 353.35335,169.24651 352.6162,169.24651 C351.87906,169.24651 347.67311,166.94344 343.26965,164.12857 L343.26965,164.12857 Z M166.90397,137.14262 C167.80631,136.78153 168.88444,136.82593 169.29981,137.24122 C169.71518,137.65659 168.97689,137.95202 167.65919,137.89774 C166.203,137.83774 165.90681,137.54157 166.90397,137.14254 L166.90397,137.14262 Z M312.90221,132.68401 C309.44645,126.74558 304.61534,114.96504 304.68138,112.63774 C304.70498,111.80381 306.31081,115.14162 308.24975,120.05509 C310.18869,124.96856 313.02771,131.01544 314.55868,133.49258 C316.08964,135.96975 317.03884,137.99651 316.66799,137.99651 C316.29715,137.99651 314.60255,135.60588 312.90221,132.68401 L312.90221,132.68401 Z M139.34043,135.86243 C140.89531,135.56345 143.14531,135.5748 144.34043,135.88763 C145.53554,136.2005 144.26333,136.44513 141.51335,136.43126 C138.76335,136.41736 137.78554,136.1614 139.34043,135.86241 L139.34043,135.86243 Z M159.97464,135.88033 C161.19085,135.5634 162.87835,135.58424 163.72464,135.92653 C164.57093,136.26894 163.57585,136.52824 161.51335,136.50277 C159.45085,136.47727 158.75843,136.19714 159.97464,135.88022 L159.97464,135.88033 Z M150.57585,134.66868 C151.43522,134.32192 152.84147,134.32192 153.70085,134.66868 C154.56022,135.01544 153.8571,135.29917 152.13835,135.29917 C150.4196,135.29917 149.71647,135.01544 150.57585,134.66868 L150.57585,134.66868 Z M18.6879,121.68903 C19.67426,117.80309 20.28293,116.8956 20.83924,118.48151 C21.46296,120.2596 22.78497,119.20405 27.58287,113.0971 C40.49371,96.66365 67.86166,72.01175 82.35972,63.75639 C88.66948,60.16354 85.14368,63.08903 74.09349,70.6152 C62.18051,78.72901 40.22218,99.49045 28.76294,113.47489 C16.50994,128.42802 17.09933,127.9475 18.6879,121.68903 L18.6879,121.68903 Z M255.88835,116.25827 C255.88835,115.98973 257.8571,115.54018 260.26335,115.25927 C262.6696,114.97835 264.63835,115.19807 264.63835,115.74751 C264.63835,116.29696 262.6696,116.74651 260.26335,116.74651 C257.8571,116.74651 255.88835,116.5268 255.88835,116.25827 L255.88835,116.25827 Z M250.26335,114.04344 C248.88835,113.28606 240.45085,105.52674 231.51335,96.8005 C214.2103,79.90646 210.87375,77.24127 199.03985,70.86113 C190.68949,66.35912 190.45912,65.20925 198.75065,69.41757 C208.82209,74.52927 215.3621,79.74616 231.51335,95.55195 C240.45085,104.29829 249.45085,112.34134 251.51335,113.4254 C253.57585,114.50946 254.70085,115.40183 254.01335,115.40845 C253.32585,115.41545 251.63835,114.80082 250.26335,114.04344 L250.26335,114.04344 Z M22.87204,109.24651 C23.7769,105.46045 36.73417,77.99651 37.61554,77.99651 C37.95929,77.99651 35.26406,84.32463 31.62613,92.05901 C27.98821,99.79338 24.36225,107.52776 23.56845,109.24651 L22.12517,112.37151 L22.87204,109.24651 L22.87204,109.24651 Z M260.4096,103.8316 C253.69746,90.03235 230.09439,69.44868 208.7058,58.74199 C205.09915,56.93657 197.22415,53.79184 191.2058,51.75369 C185.18745,49.71555 181.38835,48.05506 182.76335,48.06371 C186.62306,48.08801 205.5533,55.63684 214.96735,60.90575 C227.41984,67.87521 242.28088,79.48991 250.7445,88.86751 C257.94746,96.8483 265.25537,108.28705 264.42009,110.27326 C264.19638,110.8052 262.39166,107.90645 260.4096,103.8316 L260.4096,103.8316 Z M303.48704,108.51734 C303.54704,107.06116 303.84321,106.76497 304.24224,107.76213 C304.60332,108.66448 304.55892,109.7426 304.14364,110.15797 C303.72827,110.57333 303.43284,109.83505 303.48712,108.51734 L303.48704,108.51734 Z M302.23704,103.51734 C302.29704,102.06116 302.59321,101.76497 302.99224,102.76213 C303.35332,103.66448 303.30892,104.7426 302.89364,105.15797 C302.47827,105.57333 302.18284,104.83505 302.23712,103.51734 L302.23704,103.51734 Z M301.08571,96.74651 C301.08571,95.02776 301.36944,94.32463 301.7162,95.18401 C302.06296,96.04338 302.06296,97.44963 301.7162,98.30901 C301.36944,99.16838 301.08571,98.46526 301.08571,96.74651 L301.08571,96.74651 Z M299.99586,86.12151 C300.00586,82.68401 300.24801,81.42612 300.53532,83.3262 C300.82265,85.22627 300.81496,88.03877 300.51832,89.5762 C300.22155,91.11362 299.98648,89.559 299.99585,86.12151 L299.99586,86.12151 Z M40.2091,73.62151 C53.78911,51.27977 77.85167,27.41194 95.08466,19.19002 C97.93294,17.8311 99.19187,17.42851 97.88228,18.29538 C96.57268,19.16225 91.22893,22.6594 86.00728,26.06683 C73.95484,33.93173 55.95852,51.94711 47.24367,64.87151 C40.35527,75.08723 36.10398,80.37522 40.2091,73.62151 L40.2091,73.62151 Z M298.82511,64.24651 C298.82511,58.40276 299.04044,56.01213 299.30361,58.93401 C299.56678,61.85588 299.56678,66.63713 299.30361,69.55901 C299.04044,72.48088 298.82511,70.09026 298.82511,64.24651 L298.82511,64.24651 Z M103.93976,69.94047 C105.27429,68.87129 106.91491,67.99651 107.58559,67.99651 C109.17377,67.99651 108.46464,68.57388 104.63835,70.39615 C101.69176,71.79946 101.65188,71.77344 103.93976,69.94047 L103.93976,69.94047 Z M114.01335,65.48717 C116.76335,64.22289 120.70085,62.84466 122.76335,62.42445 C124.82585,62.00423 122.85705,63.0767 118.38835,64.80772 C108.95067,68.4635 106.81942,68.79449 114.01335,65.48717 L114.01335,65.48717 Z M180.65397,63.39262 C181.55631,63.03153 182.63444,63.07594 183.04981,63.49132 C183.46518,63.90669 182.72689,64.20213 181.40919,64.14785 C179.953,64.08785 179.65681,63.79167 180.65397,63.39264 L180.65397,63.39262 Z M175.65397,62.14262 C176.55631,61.78153 177.63444,61.82594 178.04981,62.24132 C178.46518,62.65669 177.72689,62.95213 176.40919,62.89785 C174.953,62.83785 174.65681,62.54167 175.65397,62.14264 L175.65397,62.14262 Z M87.13835,61.12699 C87.13835,60.29206 104.7905,51.48199 105.34745,52.03895 C105.59655,52.28804 101.6014,54.56954 96.46935,57.10894 C91.3373,59.64835 87.13835,61.45647 87.13835,61.12699 L87.13835,61.12699 Z M128.15397,60.89262 C129.05631,60.53153 130.13444,60.57594 130.54981,60.99132 C130.96517,61.40669 130.22689,61.70213 128.90919,61.64785 C127.453,61.58785 127.15681,61.29167 128.15397,60.89264 L128.15397,60.89262 Z M169.32585,60.91862 C170.18522,60.57186 171.59147,60.57186 172.45085,60.91862 C173.31022,61.26539 172.6071,61.54911 170.88835,61.54911 C169.1696,61.54911 168.46647,61.26539 169.32585,60.91862 L169.32585,60.91862 Z M134.95085,59.63482 C136.15397,59.32041 138.12272,59.32041 139.32585,59.63482 C140.52897,59.94923 139.5446,60.20647 137.13835,60.20647 C134.7321,60.20647 133.74772,59.94923 134.95085,59.63482 L134.95085,59.63482 Z M156.20085,59.60112 C158.09147,59.31471 161.18522,59.31471 163.07585,59.60112 C164.96647,59.88752 163.4196,60.12185 159.63835,60.12185 C155.8571,60.12185 154.31022,59.88752 156.20085,59.60112 L156.20085,59.60112 Z M297.23704,51.63359 C297.18274,50.54027 295.44064,46.24832 293.36566,42.09591 C289.9125,35.18553 282.55731,27.04766 274.63835,21.37578 C271.64518,19.23194 271.68896,19.23209 275.67645,21.37978 C285.05171,26.42866 300.00307,47.02311 297.96092,52.07509 C297.56231,53.06119 297.29995,52.90129 297.23704,51.6339 L297.23704,51.63359 Z M110.26335,49.82637 C112.32585,48.88196 114.8571,48.12669 115.88835,48.14799 C116.9196,48.16929 115.79465,48.94487 113.38835,49.87151 C107.68123,52.06931 105.43578,52.03688 110.26335,49.82641 L110.26335,49.82637 Z M120.26335,46.74651 C121.63835,46.15565 123.88835,45.68876 125.26335,45.70897 C127.27309,45.73847 127.15051,45.94197 124.63835,46.74651 C120.36439,48.11527 117.07807,48.11527 120.26335,46.74651 L120.26335,46.74651 Z M176.90397,47.14262 C177.80631,46.78153 178.88444,46.82594 179.29981,47.24132 C179.71518,47.65669 178.97689,47.95213 177.65919,47.89785 C176.203,47.83785 175.90681,47.54167 176.90397,47.14264 L176.90397,47.14262 Z M170.57585,45.91866 C171.43522,45.57189 172.84147,45.57189 173.70085,45.91866 C174.56022,46.26542 173.8571,46.54914 172.13835,46.54914 C170.4196,46.54914 169.71647,46.26542 170.57585,45.91866 L170.57585,45.91866 Z M129.95085,44.63485 C131.15397,44.32044 133.12272,44.32044 134.32585,44.63485 C135.52897,44.94926 134.5446,45.20651 132.13835,45.20651 C129.7321,45.20651 128.74772,44.94926 129.95085,44.63485 L129.95085,44.63485 Z M162.47464,44.62985 C163.69085,44.31292 165.37835,44.33376 166.22464,44.67615 C167.07093,45.01855 166.07585,45.27786 164.01335,45.25238 C161.95085,45.22688 161.25843,44.94676 162.47464,44.62983 L162.47464,44.62985 Z M143.10889,43.32921 C146.04894,43.06516 150.54894,43.06887 153.10889,43.33721 C155.66884,43.60581 153.26335,43.82186 147.76335,43.81732 C142.26335,43.81232 140.16884,43.59302 143.10889,43.32896 L143.10889,43.32921 Z M267.13835,17.37151 C265.4196,16.38898 264.60896,15.56517 265.33694,15.5408 C266.06491,15.5164 267.75241,16.32237 269.08694,17.33176 C272.17316,19.66606 271.18741,19.68617 267.13835,17.37146 L267.13835,17.37151 Z M107.13835,13.10002 C109.5446,11.84273 112.9196,10.45248 114.63835,10.01059 C116.3571,9.56869 114.73805,10.62225 111.04055,12.35183 C103.2888,15.97781 100.66967,16.48 107.13835,13.10002 L107.13835,13.10002 Z M259.63835,14.24651 C258.6071,13.58006 258.32585,13.03479 259.01335,13.03479 C259.70085,13.03479 261.1071,13.58006 262.13835,14.24651 C263.1696,14.91295 263.45085,15.45823 262.76335,15.45823 C262.07585,15.45823 260.6696,14.91295 259.63835,14.24651 L259.63835,14.24651 Z M250.88835,11.12151 C248.4821,10.19487 247.3571,9.41928 248.38835,9.39799 C249.4196,9.37669 251.95085,10.13196 254.01335,11.07637 C258.84092,13.28688 256.59547,13.31931 250.88835,11.12147 L250.88835,11.12151 Z M243.15397,8.39262 C244.05631,8.03153 245.13444,8.07594 245.54981,8.49132 C245.96518,8.90669 245.22689,9.20212 243.90919,9.14785 C242.453,9.08785 242.15681,8.79167 243.15397,8.39264 L243.15397,8.39262 Z M124.01335,6.74651 C125.38835,6.15565 127.3571,5.67222 128.38835,5.67222 C129.5702,5.67222 129.33915,6.06937 127.76335,6.74651 C126.38835,7.33737 124.4196,7.8208 123.38835,7.8208 C122.2065,7.8208 122.43755,7.42365 124.01335,6.74651 L124.01335,6.74651 Z M236.82585,7.16866 C237.68522,6.82189 239.09147,6.82189 239.95085,7.16866 C240.81022,7.51542 240.1071,7.79914 238.38835,7.79914 C236.6696,7.79914 235.96647,7.51542 236.82585,7.16866 L236.82585,7.16866 Z M231.90397,5.89262 C232.80631,5.53153 233.88444,5.57594 234.29981,5.99132 C234.71518,6.40669 233.97689,6.70212 232.65919,6.64785 C231.203,6.58785 230.90681,6.29167 231.90397,5.89264 L231.90397,5.89262 Z M133.38835,4.24651 C135.1071,3.69607 137.9196,3.25619 139.63835,3.269 C142.44535,3.2899 142.38175,3.3894 139.01335,4.24651 C136.95085,4.77133 134.13835,5.21121 132.76335,5.22402 C130.80435,5.24232 130.93961,5.03073 133.38835,4.24651 L133.38835,4.24651 Z M223.72464,4.63027 C224.94085,4.31334 226.62835,4.33419 227.47464,4.67657 C228.32093,5.01897 227.32585,5.27828 225.26335,5.2528 C223.20085,5.2273 222.50843,4.94718 223.72464,4.63025 L223.72464,4.63027 Z M214.95085,3.38485 C216.15397,3.07044 218.12272,3.07044 219.32585,3.38485 C220.52897,3.69926 219.5446,3.95651 217.13835,3.95651 C214.7321,3.95651 213.74772,3.69926 214.95085,3.38485 L214.95085,3.38485 Z M144.95085,2.13485 C146.15397,1.82044 148.12272,1.82044 149.32585,2.13485 C150.52897,2.44926 149.5446,2.70651 147.13835,2.70651 C144.7321,2.70651 143.74772,2.44926 144.95085,2.13485 L144.95085,2.13485 Z M202.46804,2.09955 C204.36811,1.81224 207.18061,1.81991 208.71804,2.11665 C210.25546,2.41335 208.70094,2.64843 205.26335,2.63904 C201.82585,2.63004 200.56796,2.3869 202.46804,2.09958 L202.46804,2.09955 Z M163.70085,0.81582 C169.71647,0.58668 179.56022,0.58668 185.57585,0.81582 C191.59147,1.04496 186.6696,1.23244 174.63835,1.23244 C162.6071,1.23244 157.68522,1.04496 163.70085,0.81582 L163.70085,0.81582 Z" id="path3386" fill="#F4FAFD"></path>
                    <path d="M148.2289,432.05901 C146.64201,430.03556 146.70084,430.00904 149.01335,431.7053 C150.38835,432.71389 151.74772,433.69826 152.03419,433.8928 C152.32064,434.08733 151.96769,434.24651 151.24974,434.24651 C150.53184,434.24651 149.17246,433.26213 148.2289,432.05901 L148.2289,432.05901 Z M154.01335,429.24651 C155.25771,427.87151 156.55707,426.74651 156.90082,426.74651 C157.24457,426.74651 156.50771,427.87151 155.26335,429.24651 C154.01899,430.62151 152.71962,431.74651 152.37587,431.74651 C152.03212,431.74651 152.76899,430.62151 154.01335,429.24651 L154.01335,429.24651 Z M144.4789,427.05901 C142.92406,425.07643 142.96827,425.03222 144.95085,426.58706 C146.15397,427.53062 147.13835,428.515 147.13835,428.77456 C147.13835,429.80336 146.11186,429.1412 144.4789,427.05901 L144.4789,427.05901 Z M157.13835,425.02456 C157.13835,424.765 158.12272,423.78062 159.32585,422.83706 C161.30842,421.28222 161.35264,421.32643 159.7978,423.30901 C158.16484,425.3912 157.13835,426.05336 157.13835,425.02456 L157.13835,425.02456 Z M140.7289,422.05901 C139.17406,420.07643 139.21827,420.03222 141.20085,421.58706 C142.40397,422.53062 143.38835,423.515 143.38835,423.77456 C143.38835,424.80336 142.36186,424.1412 140.7289,422.05901 L140.7289,422.05901 Z M162.76335,417.99651 C164.00771,416.62151 165.30707,415.49651 165.65082,415.49651 C165.99457,415.49651 165.25771,416.62151 164.01335,417.99651 C162.76899,419.37151 161.46962,420.49651 161.12587,420.49651 C160.78212,420.49651 161.51899,419.37151 162.76335,417.99651 L162.76335,417.99651 Z M136.9789,417.05901 C135.42406,415.07643 135.46827,415.03222 137.45085,416.58706 C138.65397,417.53062 139.63835,418.515 139.63835,418.77456 C139.63835,419.80336 138.61186,419.1412 136.9789,417.05901 L136.9789,417.05901 Z M133.2289,412.05901 C131.67406,410.07643 131.71827,410.03222 133.70085,411.58706 C134.90397,412.53062 135.88835,413.515 135.88835,413.77456 C135.88835,414.80336 134.86186,414.1412 133.2289,412.05901 L133.2289,412.05901 Z M165.88835,413.77456 C165.88835,413.515 166.87272,412.53062 168.07585,411.58706 C170.05842,410.03222 170.10264,410.07643 168.5478,412.05901 C166.91484,414.1412 165.88835,414.80336 165.88835,413.77456 L165.88835,413.77456 Z M129.4789,407.05901 C127.92406,405.07643 127.96827,405.03222 129.95085,406.58706 C131.15397,407.53062 132.13835,408.515 132.13835,408.77456 C132.13835,409.80336 131.11186,409.1412 129.4789,407.05901 L129.4789,407.05901 Z M169.63835,408.77456 C169.63835,408.515 170.62272,407.53062 171.82585,406.58706 C173.80842,405.03222 173.85264,405.07643 172.2978,407.05901 C170.66484,409.1412 169.63835,409.80336 169.63835,408.77456 L169.63835,408.77456 Z M173.38835,403.77456 C173.38835,403.515 174.37272,402.53062 175.57585,401.58706 C177.55842,400.03222 177.60264,400.07643 176.0478,402.05901 C174.41484,404.1412 173.38835,404.80336 173.38835,403.77456 L173.38835,403.77456 Z M123.22891,398.30901 C121.67407,396.32643 121.71828,396.28222 123.70085,397.83706 C124.90397,398.78062 125.88835,399.765 125.88835,400.02456 C125.88835,401.05336 124.86187,400.3912 123.22891,398.30901 L123.22891,398.30901 Z M179.63835,395.02456 C179.63835,394.765 180.62272,393.78062 181.82585,392.83706 C183.80842,391.28222 183.85264,391.32643 182.2978,393.30901 C180.66484,395.3912 179.63835,396.05336 179.63835,395.02456 L179.63835,395.02456 Z M116.97891,389.55901 C115.42407,387.57643 115.46828,387.53222 117.45085,389.08706 C118.65397,390.03062 119.63835,391.015 119.63835,391.27456 C119.63835,392.30336 118.61187,391.6412 116.97891,389.55901 L116.97891,389.55901 Z M188.38835,382.99651 C189.85697,380.93401 191.33984,379.24651 191.68359,379.24651 C192.02734,379.24651 191.10697,380.93401 189.63835,382.99651 C188.16972,385.05901 186.68686,386.74651 186.34311,386.74651 C185.99936,386.74651 186.91972,385.05901 188.38835,382.99651 L188.38835,382.99651 Z M109.63835,379.24651 C108.16972,377.18401 107.24937,375.49651 107.59311,375.49651 C107.93687,375.49651 109.41972,377.18401 110.88835,379.24651 C112.35698,381.30901 113.27733,382.99651 112.93359,382.99651 C112.58983,382.99651 111.10698,381.30901 109.63835,379.24651 L109.63835,379.24651 Z M203.38835,360.49651 C204.12422,359.12151 205.00756,357.99651 205.35131,357.99651 C205.69506,357.99651 205.37421,359.12151 204.63835,360.49651 C203.90248,361.87151 203.01914,362.99651 202.67539,362.99651 C202.33164,362.99651 202.65249,361.87151 203.38835,360.49651 L203.38835,360.49651 Z M209.63835,350.49651 C210.37422,349.12151 211.25756,347.99651 211.60131,347.99651 C211.94506,347.99651 211.62421,349.12151 210.88835,350.49651 C210.15248,351.87151 209.26914,352.99651 208.92539,352.99651 C208.58164,352.99651 208.90249,351.87151 209.63835,350.49651 L209.63835,350.49651 Z M215.88835,340.49651 C216.62422,339.12151 217.50756,337.99651 217.85131,337.99651 C218.19506,337.99651 217.87421,339.12151 217.13835,340.49651 C216.40248,341.87151 215.51914,342.99651 215.17539,342.99651 C214.83164,342.99651 215.15249,341.87151 215.88835,340.49651 L215.88835,340.49651 Z M219.63835,334.24651 C220.37422,332.87151 221.25756,331.74651 221.60131,331.74651 C221.94506,331.74651 221.62421,332.87151 220.88835,334.24651 C220.15248,335.62151 219.26914,336.74651 218.92539,336.74651 C218.58164,336.74651 218.90249,335.62151 219.63835,334.24651 L219.63835,334.24651 Z M77.13835,330.49651 C76.40247,329.12151 76.08164,327.99651 76.42539,327.99651 C76.76914,327.99651 77.65247,329.12151 78.38835,330.49651 C79.12423,331.87151 79.44506,332.99651 79.10131,332.99651 C78.75756,332.99651 77.87423,331.87151 77.13835,330.49651 L77.13835,330.49651 Z M70.88835,320.49651 C70.15247,319.12151 69.83164,317.99651 70.17539,317.99651 C70.51914,317.99651 71.40247,319.12151 72.13835,320.49651 C72.87423,321.87151 73.19506,322.99651 72.85131,322.99651 C72.50756,322.99651 71.62423,321.87151 70.88835,320.49651 L70.88835,320.49651 Z M230.26335,315.49651 C231.32991,313.43401 232.4838,311.74651 232.82755,311.74651 C233.1713,311.74651 232.57991,313.43401 231.51335,315.49651 C230.44679,317.55901 229.2929,319.24651 228.94915,319.24651 C228.6054,319.24651 229.19679,317.55901 230.26335,315.49651 L230.26335,315.49651 Z M239.01335,299.24651 C241.43689,294.43401 243.70102,290.49651 244.04477,290.49651 C244.38852,290.49651 242.68689,294.43401 240.26335,299.24651 C237.83981,304.05901 235.57568,307.99651 235.23193,307.99651 C234.88817,307.99651 236.58981,304.05901 239.01335,299.24651 L239.01335,299.24651 Z M60.88835,304.24651 C60.15247,302.87151 59.83164,301.74651 60.17539,301.74651 C60.51914,301.74651 61.40247,302.87151 62.13835,304.24651 C62.87423,305.62151 63.19506,306.74651 62.85131,306.74651 C62.50756,306.74651 61.62423,305.62151 60.88835,304.24651 L60.88835,304.24651 Z M55.88835,295.49651 C55.15247,294.12151 54.83164,292.99651 55.17539,292.99651 C55.51914,292.99651 56.40247,294.12151 57.13835,295.49651 C57.87423,296.87151 58.19506,297.99651 57.85131,297.99651 C57.50756,297.99651 56.62423,296.87151 55.88835,295.49651 L55.88835,295.49651 Z M51.51335,287.99651 C50.44679,285.93401 49.8554,284.24651 50.19915,284.24651 C50.5429,284.24651 51.69679,285.93401 52.76335,287.99651 C53.82991,290.05901 54.4213,291.74651 54.07755,291.74651 C53.7338,291.74651 52.57991,290.05901 51.51335,287.99651 L51.51335,287.99651 Z M246.0063,286.12151 C246.0063,285.43401 247.64072,281.77776 249.63835,277.99651 C251.63597,274.21526 253.2704,271.68401 253.2704,272.37151 C253.2704,273.05901 251.63598,276.71526 249.63835,280.49651 C247.64072,284.27776 246.0063,286.80901 246.0063,286.12151 L246.0063,286.12151 Z M44.63835,275.49651 C43.23541,272.74651 42.36879,270.49651 42.71254,270.49651 C43.05629,270.49651 44.48541,272.74651 45.88835,275.49651 C47.29129,278.24651 48.15791,280.49651 47.81416,280.49651 C47.47041,280.49651 46.04129,278.24651 44.63835,275.49651 L44.63835,275.49651 Z M255.92664,264.87151 C255.92664,264.18401 256.4719,262.77776 257.13835,261.74651 C257.8048,260.71526 258.35006,260.43401 258.35006,261.12151 C258.35006,261.80901 257.8048,263.21526 257.13835,264.24651 C256.4719,265.27776 255.92664,265.55901 255.92664,264.87151 L255.92664,264.87151 Z M32.98738,252.31341 C30.05092,246.15557 30.46402,245.10773 33.53397,250.92696 C34.9283,253.56997 35.848,255.95352 35.57776,256.22377 C35.30752,256.49401 34.14185,254.73435 32.98738,252.31341 L32.98738,252.31341 Z M259.67664,256.12151 C259.67664,255.43401 260.2219,254.02776 260.88835,252.99651 C261.5548,251.96526 262.10006,251.68401 262.10006,252.37151 C262.10006,253.05901 261.5548,254.46526 260.88835,255.49651 C260.2219,256.52776 259.67664,256.80901 259.67664,256.12151 L259.67664,256.12151 Z M146.82585,248.34226 C149.06022,248.06499 152.71647,248.06499 154.95085,248.34226 C157.18522,248.61955 155.3571,248.84642 150.88835,248.84642 C146.4196,248.84642 144.59147,248.61955 146.82585,248.34226 L146.82585,248.34226 Z M160.57585,247.16866 C161.43522,246.8219 162.84147,246.8219 163.70085,247.16866 C164.56022,247.51542 163.8571,247.79915 162.13835,247.79915 C160.4196,247.79915 159.71647,247.51542 160.57585,247.16866 L160.57585,247.16866 Z M128.93976,243.55255 C126.65187,241.71958 126.69176,241.69356 129.63835,243.09687 C133.46464,244.91913 134.17377,245.49651 132.5856,245.49651 C131.91491,245.49651 130.27429,244.62173 128.93976,243.55255 L128.93976,243.55255 Z M173.38835,242.27662 C176.4821,240.52225 181.82392,236.4509 185.25907,233.22918 L191.5048,227.37151 L186.50907,232.84248 C181.52821,238.29717 171.58236,245.51003 169.08112,245.48145 C168.35635,245.47245 170.2946,244.031 173.38835,242.27662 L173.38835,242.27662 Z M27.91777,241.07319 C26.71155,237.92982 27.06738,237.11875 28.54094,239.65276 C29.27055,240.90745 29.60419,242.19733 29.28235,242.51917 C28.96052,242.84101 28.34646,242.19031 27.91777,241.07319 L27.91777,241.07319 Z M115.88835,233.62151 C112.85206,230.52776 110.64908,227.99651 110.99283,227.99651 C111.33658,227.99651 114.10206,230.52776 117.13835,233.62151 C120.17464,236.71526 122.37762,239.24651 122.03387,239.24651 C121.69012,239.24651 118.92464,236.71526 115.88835,233.62151 L115.88835,233.62151 Z M270.92664,227.37151 C270.92664,226.68401 271.4719,225.27776 272.13835,224.24651 C272.8048,223.21526 273.35006,222.93401 273.35006,223.62151 C273.35006,224.30901 272.8048,225.71526 272.13835,226.74651 C271.4719,227.77776 270.92664,228.05901 270.92664,227.37151 L270.92664,227.37151 Z M108.22891,224.55901 C106.67407,222.57643 106.71828,222.53222 108.70085,224.08706 C109.90397,225.03062 110.88835,226.015 110.88835,226.27456 C110.88835,227.30336 109.86187,226.6412 108.22891,224.55901 L108.22891,224.55901 Z M102.07655,214.12537 C100.63962,211.30876 99.67835,208.78985 99.94039,208.5278 C100.20243,208.26576 101.64061,210.57027 103.13635,213.64893 C106.54296,220.66078 105.62191,221.07485 102.07655,214.12537 L102.07655,214.12537 Z M275.98704,212.26735 C276.04704,210.81116 276.34321,210.51497 276.74224,211.51213 C277.10333,212.41447 277.05893,213.4926 276.64364,213.90797 C276.22827,214.32333 275.93284,213.58505 275.98712,212.26735 L275.98704,212.26735 Z M17.23703,207.26735 C17.29703,205.81116 17.59321,205.51497 17.99224,206.51213 C18.35333,207.41447 18.30892,208.4926 17.89354,208.90797 C17.47817,209.32333 17.18273,208.58505 17.23701,207.26735 L17.23703,207.26735 Z M221.27886,204.56098 C232.14989,204.35267 249.58739,204.35311 260.02886,204.56195 C270.47033,204.7708 261.57585,204.94123 240.26335,204.94071 C218.95085,204.94017 210.40783,204.7693 221.27886,204.56098 L221.27886,204.56098 Z M319.32585,197.16866 C320.18522,196.8219 321.59147,196.8219 322.45085,197.16866 C323.31022,197.51542 322.6071,197.79915 320.88835,197.79915 C319.1696,197.79915 318.46647,197.51542 319.32585,197.16866 L319.32585,197.16866 Z M338.72464,197.13026 C339.94085,196.81334 341.62835,196.83418 342.47464,197.17666 C343.32093,197.51907 342.32585,197.77837 340.26335,197.7529 C338.20085,197.7274 337.50843,197.44727 338.72464,197.13035 L338.72464,197.13026 Z M313.15397,195.89261 C314.05631,195.53153 315.13444,195.57593 315.54981,195.99121 C315.96517,196.40657 315.22689,196.70201 313.90919,196.64773 C312.453,196.58773 312.15681,196.29156 313.15397,195.89253 L313.15397,195.89261 Z M346.90397,195.89261 C347.80631,195.53153 348.88445,195.57593 349.29981,195.99121 C349.71517,196.40657 348.97689,196.70201 347.65919,196.64773 C346.203,196.58773 345.90681,196.29156 346.90397,195.89253 L346.90397,195.89261 Z M308.15397,194.64261 C309.05631,194.28153 310.13444,194.32593 310.54981,194.74121 C310.96517,195.15657 310.22689,195.45201 308.90919,195.39773 C307.453,195.33773 307.15681,195.04156 308.15397,194.64253 L308.15397,194.64261 Z M303.15397,193.39261 C304.05631,193.03153 305.13444,193.07593 305.54981,193.49121 C305.96517,193.90657 305.22689,194.20201 303.90919,194.14773 C302.453,194.08773 302.15681,193.79156 303.15397,193.39253 L303.15397,193.39261 Z M298.15397,192.14261 C299.05631,191.78153 300.13444,191.82593 300.54981,192.24121 C300.96517,192.65657 300.22689,192.95201 298.90919,192.89773 C297.453,192.83773 297.15681,192.54156 298.15397,192.14253 L298.15397,192.14261 Z M358.49251,192.54081 C358.77897,192.29019 360.4196,191.41541 362.13835,190.59686 C365.08494,189.19355 365.12483,189.21958 362.83694,191.05254 C360.84569,192.64787 356.77711,194.04164 358.49251,192.54081 L358.49251,192.54081 Z M293.15397,190.89261 C294.05631,190.53153 295.13444,190.57593 295.54981,190.99121 C295.96517,191.40657 295.22689,191.70201 293.90919,191.64773 C292.453,191.58773 292.15681,191.29156 293.15397,190.89253 L293.15397,190.89261 Z M288.15397,189.64261 C289.05631,189.28153 290.13444,189.32593 290.54981,189.74121 C290.96517,190.15657 290.22689,190.45201 288.90919,190.39773 C287.453,190.33773 287.15681,190.04156 288.15397,189.64253 L288.15397,189.64261 Z M281.90397,188.39261 C282.80631,188.03153 283.88444,188.07593 284.29981,188.49121 C284.71517,188.90657 283.97689,189.20201 282.65919,189.14773 C281.203,189.08773 280.90681,188.79156 281.90397,188.39253 L281.90397,188.39261 Z M276.90397,187.14261 C277.80631,186.78153 278.88444,186.82593 279.29981,187.24121 C279.71517,187.65657 278.97689,187.95201 277.65919,187.89773 C276.203,187.83773 275.90681,187.54156 276.90397,187.14253 L276.90397,187.14261 Z M0.88835,185.57028 C0.88835,184.92336 1.53776,183.9927 2.33149,183.50215 C3.20304,182.9635 3.4362,183.15782 2.92016,183.99278 C2.34016,184.93125 4.58679,185.51818 9.91453,185.82007 L17.76335,186.26481 L9.32585,186.50566 C4.68522,186.63812 0.88835,186.21721 0.88835,185.57028 L0.88835,185.57028 Z M269.32585,185.91866 C270.18522,185.5719 271.59147,185.5719 272.45085,185.91866 C273.31022,186.26542 272.6071,186.54915 270.88835,186.54915 C269.1696,186.54915 268.46647,186.26542 269.32585,185.91866 L269.32585,185.91866 Z M66.20085,184.56957 C70.84147,184.32906 78.43522,184.32906 83.07585,184.56957 C87.71647,184.81008 83.9196,185.00686 74.63835,185.00686 C65.3571,185.00686 61.56022,184.81008 66.20085,184.56957 L66.20085,184.56957 Z M261.22464,184.63027 C262.44085,184.31335 264.12835,184.33418 264.97464,184.67667 C265.82093,185.01908 264.82585,185.27838 262.76335,185.2529 C260.70085,185.2274 260.00843,184.94728 261.22464,184.63035 L261.22464,184.63027 Z M248.07585,183.3643 C249.62272,183.06635 252.15397,183.06635 253.70085,183.3643 C255.24772,183.66223 253.9821,183.90601 250.88835,183.90601 C247.7946,183.90601 246.52897,183.66223 248.07585,183.3643 L248.07585,183.3643 Z M223.09824,182.09055 C225.34493,181.81235 228.71993,181.81808 230.59824,182.10335 C232.47655,182.38857 230.63834,182.61619 226.51335,182.60917 C222.38835,182.60217 220.85155,182.3688 223.09824,182.0906 L223.09824,182.09055 Z M215.65397,180.89257 C216.55631,180.53148 217.63444,180.57588 218.04981,180.99117 C218.46518,181.40653 217.72689,181.70197 216.40919,181.64769 C214.953,181.58769 214.65681,181.29152 215.65397,180.89249 L215.65397,180.89257 Z M203.62809,173.43668 L197.76335,167.62691 L204.01335,173.02476 C207.45085,175.99357 210.49772,178.60797 210.78419,178.83453 C211.07064,179.0611 210.89731,179.24646 210.39892,179.24646 C209.90058,179.24646 206.8537,176.63206 203.62809,173.43668 L203.62809,173.43668 Z M366.39459,176.43396 L364.01335,173.62146 L366.82585,176.0027 C369.4689,178.24047 370.2074,179.24646 369.20709,179.24646 C368.96989,179.24646 367.70426,177.98083 366.39459,176.43396 L366.39459,176.43396 Z M7.13835,174.24646 C7.87423,172.87146 8.75756,171.74646 9.10131,171.74646 C9.44506,171.74646 9.12421,172.87146 8.38835,174.24646 C7.65247,175.62146 6.76914,176.74646 6.42539,176.74646 C6.08164,176.74646 6.40249,175.62146 7.13835,174.24646 L7.13835,174.24646 Z M93.38835,175.03 C93.38835,173.68002 98.35362,164.24646 99.06416,164.24646 C99.40791,164.24646 98.48358,166.63708 97.01011,169.55896 C94.1124,175.30503 93.38835,176.39878 93.38835,175.03 L93.38835,175.03 Z M359.63835,172.37146 C357.9196,171.38893 357.10896,170.56511 357.83694,170.54076 C358.56491,170.51636 360.25241,171.32232 361.58694,172.33171 C364.67316,174.66601 363.68741,174.68612 359.63835,172.37141 L359.63835,172.37146 Z M10.88835,167.99646 C11.62423,166.62146 12.50756,165.49646 12.85131,165.49646 C13.19506,165.49646 12.87421,166.62146 12.13835,167.99646 C11.40247,169.37146 10.51914,170.49646 10.17539,170.49646 C9.83164,170.49646 10.15249,169.37146 10.88835,167.99646 L10.88835,167.99646 Z M338.21432,160.42227 L335.26335,157.84808 L338.70085,159.94103 C340.59147,161.09216 342.13835,162.25055 342.13835,162.51522 C342.13835,163.49127 341.09399,162.93425 338.21432,160.42227 L338.21432,160.42227 Z M17.13835,157.99651 C17.87423,156.62151 18.75756,155.49651 19.10131,155.49651 C19.44506,155.49651 19.12421,156.62151 18.38835,157.99651 C17.65247,159.37151 16.76914,160.49651 16.42539,160.49651 C16.08164,160.49651 16.40249,159.37151 17.13835,157.99651 L17.13835,157.99651 Z M104.63835,156.12151 C106.25303,154.40276 107.85538,152.99651 108.19914,152.99651 C108.54289,152.99651 107.50303,154.40276 105.88835,156.12151 C104.27367,157.84026 102.67132,159.24651 102.32756,159.24651 C101.98381,159.24651 103.02367,157.84026 104.63835,156.12151 L104.63835,156.12151 Z M327.09565,150.80901 L320.26335,143.62151 L327.45085,150.45381 C331.40397,154.21157 334.63835,157.44595 334.63835,157.64131 C334.63835,158.56912 333.44307,157.48642 327.09565,150.80901 L327.09565,150.80901 Z M23.38835,148.62151 C25.51691,145.52776 27.5397,142.99651 27.88345,142.99651 C28.2272,142.99651 26.76691,145.52776 24.63835,148.62151 C22.50979,151.71526 20.487,154.24651 20.14325,154.24651 C19.7995,154.24651 21.25979,151.71526 23.38835,148.62151 L23.38835,148.62151 Z M112.13835,148.62151 C113.75303,146.90276 115.35538,145.49651 115.69914,145.49651 C116.04289,145.49651 115.00303,146.90276 113.38835,148.62151 C111.77367,150.34026 110.17132,151.74651 109.82756,151.74651 C109.48381,151.74651 110.52367,150.34026 112.13835,148.62151 L112.13835,148.62151 Z M182.70454,146.43401 L177.76335,141.12151 L183.07585,146.0627 C188.01642,150.65795 188.96276,151.74651 188.01704,151.74651 C187.81281,151.74651 185.42219,149.35588 182.70454,146.43401 L182.70454,146.43401 Z M318.2289,140.80901 C316.67406,138.82643 316.71827,138.78222 318.70085,140.33706 C319.90397,141.28062 320.88835,142.265 320.88835,142.52456 C320.88835,143.55336 319.86186,142.8912 318.2289,140.80901 L318.2289,140.80901 Z M30.88835,137.99651 C32.35698,135.93401 33.83983,134.24651 34.18358,134.24651 C34.52733,134.24651 33.60698,135.93401 32.13835,137.99651 C30.66972,140.05901 29.18687,141.74651 28.84312,141.74651 C28.49937,141.74651 29.41972,140.05901 30.88835,137.99651 L30.88835,137.99651 Z M166.90397,137.14262 C167.80631,136.78153 168.88444,136.82593 169.29981,137.24122 C169.71518,137.65659 168.97689,137.95202 167.65919,137.89774 C166.203,137.83774 165.90681,137.54157 166.90397,137.14254 L166.90397,137.14262 Z M314.63835,135.49651 C313.90248,134.12151 313.58164,132.99651 313.92539,132.99651 C314.26914,132.99651 315.15248,134.12151 315.88835,135.49651 C316.62422,136.87151 316.94506,137.99651 316.60131,137.99651 C316.25756,137.99651 315.37422,136.87151 314.63835,135.49651 L314.63835,135.49651 Z M139.32585,135.91866 C140.18522,135.5719 141.59147,135.5719 142.45085,135.91866 C143.31022,136.26542 142.6071,136.54915 140.88835,136.54915 C139.1696,136.54915 138.46647,136.26542 139.32585,135.91866 L139.32585,135.91866 Z M160.57585,135.91866 C161.43522,135.5719 162.84147,135.5719 163.70085,135.91866 C164.56022,136.26542 163.8571,136.54915 162.13835,136.54915 C160.4196,136.54915 159.71647,136.26542 160.57585,135.91866 L160.57585,135.91866 Z M36.51335,130.49651 C37.75771,129.12151 39.05707,127.99651 39.40082,127.99651 C39.74457,127.99651 39.00771,129.12151 37.76335,130.49651 C36.51899,131.87151 35.21963,132.99651 34.87588,132.99651 C34.53213,132.99651 35.26899,131.87151 36.51335,130.49651 L36.51335,130.49651 Z M41.51335,124.24651 C42.75771,122.87151 44.05707,121.74651 44.40082,121.74651 C44.74457,121.74651 44.00771,122.87151 42.76335,124.24651 C41.51899,125.62151 40.21963,126.74651 39.87588,126.74651 C39.53213,126.74651 40.26899,125.62151 41.51335,124.24651 L41.51335,124.24651 Z M18.38835,123.07028 C18.38835,120.05207 19.08349,119.74759 20.07502,122.33148 C20.4623,123.34071 20.24123,124.49891 19.58376,124.90525 C18.92628,125.31159 18.38835,124.48585 18.38835,123.07028 L18.38835,123.07028 Z M20.88835,121.27457 C20.88835,121.015 21.87272,120.03062 23.07585,119.08707 C25.05842,117.53223 25.10263,117.57644 23.54779,119.55901 C21.91483,121.64119 20.88835,122.30336 20.88835,121.27457 L20.88835,121.27457 Z M45.88835,118.85537 C45.88835,118.64025 47.71647,116.81212 49.95085,114.79287 L54.01335,111.12151 L50.34199,115.18401 C46.91976,118.97083 45.88835,119.82107 45.88835,118.85537 L45.88835,118.85537 Z M27.13835,113.62151 C28.75303,111.90276 30.35539,110.49651 30.69914,110.49651 C31.04289,110.49651 30.00303,111.90276 28.38835,113.62151 C26.77367,115.34026 25.17131,116.74651 24.82756,116.74651 C24.48381,116.74651 25.52367,115.34026 27.13835,113.62151 L27.13835,113.62151 Z M256.82585,115.91866 C257.68522,115.57189 259.09147,115.57189 259.95085,115.91866 C260.81022,116.26542 260.1071,116.54914 258.38835,116.54914 C256.6696,116.54914 255.96647,116.26542 256.82585,115.91866 L256.82585,115.91866 Z M250.18976,113.55255 C247.90187,111.71958 247.94176,111.69356 250.88835,113.09687 C254.71464,114.91913 255.42377,115.49651 253.8356,115.49651 C253.16491,115.49651 251.52429,114.62173 250.18976,113.55255 L250.18976,113.55255 Z M230.86959,95.80901 L215.26335,79.87151 L231.20085,95.47775 C239.96647,104.06119 247.13835,111.23306 247.13835,111.41525 C247.13835,112.3133 245.36619,110.61331 230.86959,95.80901 L230.86959,95.80901 Z M60.26335,102.99651 C64.34531,98.87151 67.96634,95.49651 68.31009,95.49651 C68.65384,95.49651 65.59531,98.87151 61.51335,102.99651 C57.43139,107.12151 53.81036,110.49651 53.46661,110.49651 C53.12286,110.49651 56.18139,107.12151 60.26335,102.99651 L60.26335,102.99651 Z M303.48704,108.51734 C303.54704,107.06116 303.84321,106.76497 304.24224,107.76213 C304.60332,108.66448 304.55892,109.7426 304.14364,110.15797 C303.72827,110.57333 303.43284,109.83505 303.48712,108.51734 L303.48704,108.51734 Z M37.76335,101.74651 C41.14916,98.30901 44.20062,95.49651 44.54437,95.49651 C44.88812,95.49651 42.39916,98.30901 39.01335,101.74651 C35.62754,105.18401 32.57608,107.99651 32.23233,107.99651 C31.88858,107.99651 34.37754,105.18401 37.76335,101.74651 L37.76335,101.74651 Z M261.06868,104.55901 C259.70467,101.37146 259.73554,101.29794 261.49304,103.54792 C262.53546,104.88245 263.38835,106.42932 263.38835,106.98542 C263.38835,108.88531 262.54044,107.99837 261.06868,104.55901 L261.06868,104.55901 Z M302.23704,103.51734 C302.29704,102.06116 302.59321,101.76497 302.99224,102.76213 C303.35333,103.66448 303.30893,104.7426 302.89364,105.15797 C302.47827,105.57333 302.18284,104.83505 302.23712,103.51734 L302.23704,103.51734 Z M27.17663,98.62151 C27.17663,97.93401 27.72191,96.52776 28.38835,95.49651 C29.05479,94.46526 29.60007,94.18401 29.60007,94.87151 C29.60007,95.55901 29.05479,96.96526 28.38835,97.99651 C27.72191,99.02776 27.17663,99.30901 27.17663,98.62151 L27.17663,98.62151 Z M301.08571,96.74651 C301.08571,95.02776 301.36944,94.32463 301.7162,95.18401 C302.06296,96.04338 302.06296,97.44963 301.7162,98.30901 C301.36944,99.16838 301.08571,98.46526 301.08571,96.74651 L301.08571,96.74651 Z M253.89459,93.93401 L251.51335,91.12151 L254.32585,93.50274 C256.9689,95.74052 257.7074,96.74651 256.70709,96.74651 C256.46989,96.74651 255.20426,95.48088 253.89459,93.93401 L253.89459,93.93401 Z M70.88835,93.85541 C70.88835,93.64029 72.71647,91.81216 74.95085,89.79291 L79.01335,86.12155 L75.34199,90.18405 C71.91976,93.97087 70.88835,94.82111 70.88835,93.85541 L70.88835,93.85541 Z M52.76335,86.74655 C56.14916,83.30905 59.20062,80.49655 59.54437,80.49655 C59.88812,80.49655 57.39916,83.30905 54.01335,86.74655 C50.62754,90.18405 47.57608,92.99655 47.23233,92.99655 C46.88858,92.99655 49.37754,90.18405 52.76335,86.74655 L52.76335,86.74655 Z M245.88835,84.87155 C242.85206,81.7778 240.64908,79.24655 240.99283,79.24655 C241.33658,79.24655 244.10206,81.7778 247.13835,84.87155 C250.17464,87.9653 252.37762,90.49655 252.03387,90.49655 C251.69012,90.49655 248.92464,87.9653 245.88835,84.87155 L245.88835,84.87155 Z M299.95358,86.12155 C299.96748,83.37155 300.22344,82.39373 300.52243,83.94862 C300.82141,85.50352 300.81006,87.75351 300.49713,88.94862 C300.1843,90.14373 299.93966,88.87152 299.95354,86.12155 L299.95358,86.12155 Z M79.63835,86.27461 C79.63835,86.01504 80.62272,85.03066 81.82585,84.08711 C83.80842,82.53227 83.85263,82.57648 82.29779,84.55905 C80.66483,86.64123 79.63835,87.3034 79.63835,86.27461 L79.63835,86.27461 Z M35.26335,81.74655 C36.32991,79.68405 37.4838,77.99655 37.82755,77.99655 C38.1713,77.99655 37.57991,79.68405 36.51335,81.74655 C35.44679,83.80905 34.2929,85.49655 33.94915,85.49655 C33.6054,85.49655 34.19679,83.80905 35.26335,81.74655 L35.26335,81.74655 Z M84.63835,82.52461 C84.63835,82.26504 85.62272,81.28066 86.82585,80.33711 C88.80842,78.78227 88.85263,78.82648 87.29779,80.80905 C85.66483,82.89123 84.63835,83.5534 84.63835,82.52461 L84.63835,82.52461 Z M62.76335,77.99655 C64.00771,76.62155 65.30707,75.49655 65.65082,75.49655 C65.99457,75.49655 65.25771,76.62155 64.01335,77.99655 C62.76899,79.37155 61.46963,80.49655 61.12588,80.49655 C60.78213,80.49655 61.51899,79.37155 62.76335,77.99655 L62.76335,77.99655 Z M211.9789,78.30905 C210.42406,76.32648 210.46827,76.28227 212.45085,77.83711 C214.53304,79.47007 215.1952,80.49655 214.1664,80.49655 C213.90684,80.49655 212.92246,79.51217 211.9789,78.30905 L211.9789,78.30905 Z M91.51335,77.34888 C92.88835,76.22932 95.13835,74.76101 96.51335,74.08596 C99.01335,72.85859 99.01335,72.85859 96.51335,74.89415 C95.13835,76.0137 92.88835,77.48201 91.51335,78.15706 C89.01335,79.38443 89.01335,79.38443 91.51335,77.34888 L91.51335,77.34888 Z M235.79374,75.80901 L232.76335,72.37151 L236.20085,75.4019 C238.09147,77.06862 239.63835,78.61549 239.63835,78.8394 C239.63835,79.81974 238.6261,79.02187 235.79374,75.80901 L235.79374,75.80901 Z M67.13835,75.02457 C67.13835,74.765 68.12272,73.78062 69.32585,72.83707 C71.30842,71.28223 71.35263,71.32644 69.79779,73.30901 C68.16483,75.39119 67.13835,76.05336 67.13835,75.02457 L67.13835,75.02457 Z M198.38835,70.49651 C194.6071,68.49888 191.95393,66.83792 192.4924,66.80548 C193.82084,66.72548 205.88835,72.88454 205.88835,73.64257 C205.88835,74.47762 206.06172,74.55035 198.38835,70.49651 L198.38835,70.49651 Z M74.93166,68.96397 C78.64322,65.80892 85.88835,61.28589 85.88835,62.12387 C85.88835,62.40915 82.65397,64.71868 78.70085,67.25615 C74.74772,69.79363 73.05159,70.56214 74.93166,68.96397 L74.93166,68.96397 Z M224.63835,67.88482 C221.94614,65.68273 221.89322,65.51439 224.25624,66.66934 C225.76482,67.40668 227.34489,68.56943 227.7675,69.25323 C228.89572,71.07873 228.13801,70.74737 224.63835,67.88482 L224.63835,67.88482 Z M298.76293,61.74651 C298.76293,57.96526 298.99726,56.41838 299.28366,58.30901 C299.57007,60.19963 299.57007,63.29338 299.28366,65.18401 C298.99726,67.07463 298.76293,65.52776 298.76293,61.74651 L298.76293,61.74651 Z M180.65397,63.39262 C181.55631,63.03153 182.63444,63.07594 183.04981,63.49132 C183.46518,63.90669 182.72689,64.20213 181.40919,64.14785 C179.953,64.08785 179.65681,63.79167 180.65397,63.39264 L180.65397,63.39262 Z M47.13835,62.52457 C47.13835,62.265 48.12272,61.28062 49.32585,60.33707 C51.30842,58.78223 51.35263,58.82644 49.79779,60.80901 C48.16483,62.89119 47.13835,63.55336 47.13835,62.52457 L47.13835,62.52457 Z M123.15397,62.14262 C124.05632,61.78153 125.13444,61.82594 125.54981,62.24132 C125.96518,62.65669 125.22689,62.95213 123.90918,62.89785 C122.453,62.83785 122.15681,62.54167 123.15397,62.14264 L123.15397,62.14262 Z M175.65397,62.14262 C176.55631,61.78153 177.63444,61.82594 178.04981,62.24132 C178.46518,62.65669 177.72689,62.95213 176.40919,62.89785 C174.953,62.83785 174.65681,62.54167 175.65397,62.14264 L175.65397,62.14262 Z M128.15397,60.89262 C129.05631,60.53153 130.13444,60.57594 130.54981,60.99132 C130.96517,61.40669 130.22689,61.70213 128.90919,61.64785 C127.453,61.58785 127.15681,61.29167 128.15397,60.89264 L128.15397,60.89262 Z M169.32585,60.91862 C170.18522,60.57186 171.59147,60.57186 172.45085,60.91862 C173.31022,61.26539 172.6071,61.54911 170.88835,61.54911 C169.1696,61.54911 168.46647,61.26539 169.32585,60.91862 L169.32585,60.91862 Z M89.63835,59.95944 C89.63835,59.61569 90.76335,58.73236 92.13835,57.99648 C93.51335,57.2606 94.63835,56.93977 94.63835,57.28352 C94.63835,57.62727 93.51335,58.5106 92.13835,59.24648 C90.76335,59.98236 89.63835,60.30319 89.63835,59.95944 L89.63835,59.95944 Z M134.97464,59.63024 C136.19085,59.31331 137.87835,59.33415 138.72464,59.67654 C139.57093,60.01895 138.57585,60.27825 136.51335,60.25278 C134.45085,60.22728 133.75843,59.94716 134.97464,59.63023 L134.97464,59.63024 Z M156.21804,59.59954 C158.11811,59.31222 160.93061,59.3199 162.46804,59.61664 C164.00546,59.91334 162.45094,60.14842 159.01335,60.13903 C155.57585,60.13003 154.31796,59.88689 156.21804,59.59957 L156.21804,59.59954 Z M207.13835,57.99652 C206.01174,57.26844 205.85756,56.77716 206.75208,56.76566 C207.57088,56.75516 208.58845,57.30902 209.01335,57.99652 C209.97247,59.54843 209.53975,59.54843 207.13835,57.99652 L207.13835,57.99652 Z M52.76335,55.49652 C54.00771,54.12152 55.30707,52.99652 55.65082,52.99652 C55.99457,52.99652 55.25771,54.12152 54.01335,55.49652 C52.76899,56.87152 51.46963,57.99652 51.12588,57.99652 C50.78213,57.99652 51.51899,56.87152 52.76335,55.49652 L52.76335,55.49652 Z M98.38835,54.87152 C100.1071,53.88899 102.07585,53.08511 102.76335,53.08511 C103.45085,53.08511 102.6071,53.88899 100.88835,54.87152 C99.1696,55.85405 97.20085,56.65793 96.51335,56.65793 C95.82585,56.65793 96.6696,55.85405 98.38835,54.87152 L98.38835,54.87152 Z M297.23704,51.01734 C297.29704,49.56116 297.59321,49.26497 297.99224,50.26213 C298.35332,51.16448 298.30892,52.2426 297.89364,52.65797 C297.47827,53.07333 297.18284,52.33505 297.23712,51.01734 L297.23704,51.01734 Z M64.01335,42.99651 C68.78897,38.18401 72.97755,34.24651 73.3213,34.24651 C73.66505,34.24651 70.03897,38.18401 65.26335,42.99651 C60.48773,47.80901 56.29915,51.74651 55.9554,51.74651 C55.61165,51.74651 59.23773,47.80901 64.01335,42.99651 L64.01335,42.99651 Z M181.90397,48.39262 C182.80631,48.03153 183.88444,48.07594 184.29981,48.49132 C184.71518,48.90669 183.97689,49.20213 182.65919,49.14785 C181.203,49.08785 180.90681,48.79167 181.90397,48.39264 L181.90397,48.39262 Z M176.90397,47.14262 C177.80631,46.78153 178.88444,46.82594 179.29981,47.24132 C179.71518,47.65669 178.97689,47.95213 177.65919,47.89785 C176.203,47.83785 175.90681,47.54167 176.90397,47.14264 L176.90397,47.14262 Z M295.41778,46.07319 C294.21155,42.92982 294.56739,42.11874 296.04094,44.65276 C296.77055,45.90745 297.10419,47.19734 296.78235,47.51917 C296.46051,47.84101 295.84645,47.19031 295.41778,46.07319 L295.41778,46.07319 Z M124.40397,45.89262 C125.30632,45.53153 126.38444,45.57594 126.79981,45.99132 C127.21518,46.40669 126.47689,46.70213 125.15918,46.64785 C123.703,46.58785 123.40681,46.29167 124.40397,45.89264 L124.40397,45.89262 Z M170.57585,45.91862 C171.43522,45.57186 172.84147,45.57186 173.70085,45.91862 C174.56022,46.26539 173.8571,46.54911 172.13835,46.54911 C170.4196,46.54911 169.71647,46.26539 170.57585,45.91862 L170.57585,45.91862 Z M130.57585,44.66862 C131.43522,44.32186 132.84147,44.32186 133.70085,44.66862 C134.56022,45.01539 133.8571,45.29911 132.13835,45.29911 C130.4196,45.29911 129.71647,45.01539 130.57585,44.66862 L130.57585,44.66862 Z M162.47464,44.63022 C163.69085,44.31329 165.37835,44.33413 166.22464,44.67652 C167.07093,45.01892 166.07585,45.27823 164.01335,45.25275 C161.95085,45.22725 161.25843,44.94713 162.47464,44.6302 L162.47464,44.63022 Z M142.45085,43.33588 C145.02897,43.06619 149.24772,43.06619 151.82585,43.33588 C154.40397,43.60556 152.2946,43.8262 147.13835,43.8262 C141.9821,43.8262 139.87272,43.60556 142.45085,43.33588 L142.45085,43.33588 Z M292.13835,39.24646 C291.40248,37.87146 291.08164,36.74646 291.42539,36.74646 C291.76914,36.74646 292.65248,37.87146 293.38835,39.24646 C294.12422,40.62146 294.44506,41.74646 294.10131,41.74646 C293.75756,41.74646 292.87422,40.62146 292.13835,39.24646 L292.13835,39.24646 Z M283.96636,28.93396 L277.76335,22.37146 L284.32585,28.57447 C290.42384,34.33842 291.4616,35.49646 290.52886,35.49646 C290.33114,35.49646 287.37801,32.54333 283.96636,28.93396 L283.96636,28.93396 Z M76.51335,31.74646 C77.75771,30.37146 79.05707,29.24646 79.40082,29.24646 C79.74457,29.24646 79.00771,30.37146 77.76335,31.74646 C76.51899,33.12146 75.21963,34.24646 74.87588,34.24646 C74.53213,34.24646 75.26899,33.12146 76.51335,31.74646 L76.51335,31.74646 Z M81.72975,27.89651 C83.28061,26.01921 90.88835,21.23305 90.88835,22.13468 C90.88835,22.42594 88.49772,24.24089 85.57585,26.16791 C82.65397,28.09492 80.92323,28.87279 81.72975,27.89651 L81.72975,27.89651 Z M92.13835,21.20942 C92.13835,20.86567 93.26335,19.98234 94.63835,19.24646 C96.01335,18.51058 97.13835,18.18975 97.13835,18.5335 C97.13835,18.87725 96.01335,19.76058 94.63835,20.49646 C93.26335,21.23234 92.13835,21.55317 92.13835,21.20942 L92.13835,21.20942 Z M251.90397,10.89257 C252.80631,10.53148 253.88444,10.57589 254.29981,10.99127 C254.71518,11.40664 253.97689,11.70207 252.65919,11.6478 C251.203,11.5878 250.90681,11.29162 251.90397,10.89259 L251.90397,10.89257 Z M243.15397,8.39257 C244.05631,8.03148 245.13444,8.07589 245.54981,8.49127 C245.96518,8.90664 245.22689,9.20207 243.90919,9.1478 C242.453,9.0878 242.15681,8.79162 243.15397,8.39259 L243.15397,8.39257 Z M238.15397,7.14257 C239.05631,6.78148 240.13444,6.82589 240.54981,7.24127 C240.96518,7.65664 240.22689,7.95207 238.90919,7.8978 C237.453,7.8378 237.15681,7.54162 238.15397,7.14259 L238.15397,7.14257 Z M126.90397,5.89257 C127.80631,5.53148 128.88444,5.57589 129.29981,5.99127 C129.71517,6.40664 128.97689,6.70207 127.65919,6.6478 C126.203,6.5878 125.90681,6.29162 126.90397,5.89259 L126.90397,5.89257 Z M231.90397,5.89257 C232.80631,5.53148 233.88444,5.57589 234.29981,5.99127 C234.71518,6.40664 233.97689,6.70207 232.65919,6.6478 C231.203,6.5878 230.90681,6.29162 231.90397,5.89259 L231.90397,5.89257 Z M131.90397,4.64257 C132.80631,4.28148 133.88444,4.32589 134.29981,4.74127 C134.71517,5.15664 133.97689,5.45207 132.65919,5.3978 C131.203,5.3378 130.90681,5.04162 131.90397,4.64259 L131.90397,4.64257 Z M224.32585,4.66857 C225.18522,4.3218 226.59147,4.3218 227.45085,4.66857 C228.31022,5.01533 227.6071,5.29905 225.88835,5.29905 C224.1696,5.29905 223.46647,5.01533 224.32585,4.66857 L224.32585,4.66857 Z M138.07585,3.41857 C138.93522,3.0718 140.34147,3.0718 141.20085,3.41857 C142.06022,3.76533 141.3571,4.04905 139.63835,4.04905 C137.9196,4.04905 137.21647,3.76533 138.07585,3.41857 L138.07585,3.41857 Z M214.97464,3.38017 C216.19085,3.06324 217.87835,3.08408 218.72464,3.42647 C219.57093,3.76887 218.57585,4.02818 216.51335,4.0027 C214.45085,3.9772 213.75843,3.69708 214.97464,3.38015 L214.97464,3.38017 Z M146.22464,2.13017 C147.44085,1.81324 149.12835,1.83408 149.97464,2.17647 C150.82093,2.51887 149.82585,2.77818 147.76335,2.7527 C145.70085,2.7272 145.00843,2.44708 146.22464,2.13015 L146.22464,2.13017 Z M201.82585,2.11427 C203.37272,1.81633 205.90397,1.81633 207.45085,2.11427 C208.99772,2.41221 207.7321,2.65598 204.63835,2.65598 C201.5446,2.65598 200.27897,2.41221 201.82585,2.11427 L201.82585,2.11427 Z M164.32585,0.81646 C169.99772,0.58484 179.27897,0.58484 184.95085,0.81646 C190.62272,1.04807 185.9821,1.23758 174.63835,1.23758 C163.2946,1.23758 158.65397,1.04807 164.32585,0.81646 L164.32585,0.81646 Z" id="path3384" fill="#ECF8FD"></path>
                    <path d="M152.13835,431.27456 C152.13835,431.015 153.12272,430.03062 154.32585,429.08706 C156.30842,427.53222 156.35264,427.57643 154.7978,429.55901 C153.16484,431.6412 152.13835,432.30336 152.13835,431.27456 L152.13835,431.27456 Z M157.13835,425.02456 C157.13835,424.765 158.12272,423.78062 159.32585,422.83706 C161.30842,421.28222 161.35264,421.32643 159.7978,423.30901 C158.16484,425.3912 157.13835,426.05336 157.13835,425.02456 L157.13835,425.02456 Z M133.2289,412.05901 C131.67406,410.07643 131.71827,410.03222 133.70085,411.58706 C134.90397,412.53062 135.88835,413.515 135.88835,413.77456 C135.88835,414.80336 134.86186,414.1412 133.2289,412.05901 L133.2289,412.05901 Z M165.88835,413.77456 C165.88835,413.515 166.87272,412.53062 168.07585,411.58706 C170.05842,410.03222 170.10264,410.07643 168.5478,412.05901 C166.91484,414.1412 165.88835,414.80336 165.88835,413.77456 L165.88835,413.77456 Z M238.38835,300.49651 C239.12422,299.12151 240.00756,297.99651 240.35131,297.99651 C240.69506,297.99651 240.37421,299.12151 239.63835,300.49651 C238.90248,301.87151 238.01914,302.99651 237.67539,302.99651 C237.33164,302.99651 237.65249,301.87151 238.38835,300.49651 L238.38835,300.49651 Z M148.09824,248.3406 C150.34493,248.0624 153.71993,248.06814 155.59824,248.3533 C157.47655,248.63852 155.63834,248.86614 151.51335,248.85912 C147.38835,248.85112 145.85155,248.61875 148.09824,248.34055 L148.09824,248.3406 Z M130.2722,244.26082 C129.83427,243.55225 130.3361,243.3427 131.44842,243.76956 C133.61395,244.60055 134.01016,245.49651 132.21213,245.49651 C131.5652,245.49651 130.69223,244.94045 130.2722,244.26082 L130.2722,244.26082 Z M115.88835,233.62151 C112.85206,230.52776 110.64908,227.99651 110.99283,227.99651 C111.33658,227.99651 114.10206,230.52776 117.13835,233.62151 C120.17464,236.71526 122.37762,239.24651 122.03387,239.24651 C121.69012,239.24651 118.92464,236.71526 115.88835,233.62151 L115.88835,233.62151 Z M184.01335,234.24651 C186.69865,231.49651 189.17697,229.24651 189.52072,229.24651 C189.86447,229.24651 187.94865,231.49651 185.26335,234.24651 C182.57805,236.99651 180.09973,239.24651 179.75598,239.24651 C179.41222,239.24651 181.32805,236.99651 184.01335,234.24651 L184.01335,234.24651 Z M17.23703,207.26735 C17.29703,205.81116 17.59321,205.51497 17.99224,206.51213 C18.35333,207.41447 18.30892,208.4926 17.89354,208.90797 C17.47818,209.32333 17.18274,208.58505 17.23702,207.26735 L17.23703,207.26735 Z M221.27886,204.56098 C232.14989,204.35267 249.58739,204.35311 260.02886,204.56195 C270.47033,204.7708 261.57585,204.94123 240.26335,204.94071 C218.95085,204.94017 210.40783,204.7693 221.27886,204.56098 L221.27886,204.56098 Z M319.32585,197.16866 C320.18522,196.8219 321.59147,196.8219 322.45085,197.16866 C323.31022,197.51542 322.6071,197.79915 320.88835,197.79915 C319.1696,197.79915 318.46647,197.51542 319.32585,197.16866 L319.32585,197.16866 Z M338.72464,197.13026 C339.94085,196.81334 341.62835,196.83418 342.47464,197.17666 C343.32093,197.51907 342.32585,197.77837 340.26335,197.7529 C338.20085,197.7274 337.50843,197.44727 338.72464,197.13035 L338.72464,197.13026 Z M346.90397,195.89261 C347.80631,195.53153 348.88445,195.57593 349.29981,195.99121 C349.71517,196.40657 348.97689,196.70201 347.65919,196.64773 C346.203,196.58773 345.90681,196.29156 346.90397,195.89253 L346.90397,195.89261 Z M293.15397,190.89261 C294.05631,190.53153 295.13444,190.57593 295.54981,190.99121 C295.96517,191.40657 295.22689,191.70201 293.90919,191.64773 C292.453,191.58773 292.15681,191.29156 293.15397,190.89253 L293.15397,190.89261 Z M276.90397,187.14261 C277.80631,186.78153 278.88444,186.82593 279.29981,187.24121 C279.71517,187.65657 278.97689,187.95201 277.65919,187.89773 C276.203,187.83773 275.90681,187.54156 276.90397,187.14253 L276.90397,187.14261 Z M5.59824,185.84058 C7.84492,185.56238 11.21992,185.56811 13.09824,185.85338 C14.97655,186.1386 13.13834,186.36622 9.01335,186.3592 C4.88835,186.3522 3.35155,186.11883 5.59824,185.84063 L5.59824,185.84058 Z M269.32585,185.91868 C270.18522,185.57192 271.59147,185.57192 272.45085,185.91868 C273.31022,186.26544 272.6071,186.54917 270.88835,186.54917 C269.1696,186.54917 268.46647,186.26544 269.32585,185.91868 L269.32585,185.91868 Z M66.20085,184.56959 C70.84147,184.32908 78.43522,184.32908 83.07585,184.56959 C87.71647,184.8101 83.9196,185.00688 74.63835,185.00688 C65.3571,185.00688 61.56022,184.8101 66.20085,184.56959 L66.20085,184.56959 Z M261.22464,184.63029 C262.44085,184.31337 264.12835,184.3342 264.97464,184.67669 C265.82093,185.0191 264.82585,185.2784 262.76335,185.25292 C260.70085,185.22742 260.00843,184.9473 261.22464,184.63037 L261.22464,184.63029 Z M248.07585,183.36432 C249.62272,183.06637 252.15397,183.06637 253.70085,183.36432 C255.24772,183.66225 253.9821,183.90603 250.88835,183.90603 C247.7946,183.90603 246.52897,183.66225 248.07585,183.36432 L248.07585,183.36432 Z M223.71804,182.0995 C225.61811,181.81218 228.43061,181.81987 229.96804,182.1165 C231.50546,182.4132 229.95094,182.64828 226.51335,182.6389 C223.07585,182.6289 221.81796,182.38676 223.71804,182.09944 L223.71804,182.0995 Z M366.39459,176.43398 L364.01335,173.62148 L366.82585,176.00272 C369.4689,178.24049 370.2074,179.24648 369.20709,179.24648 C368.96989,179.24648 367.70426,177.98085 366.39459,176.43398 L366.39459,176.43398 Z M7.13835,174.24648 C7.87423,172.87148 8.75756,171.74648 9.10131,171.74648 C9.44506,171.74648 9.12421,172.87148 8.38835,174.24648 C7.65247,175.62148 6.76914,176.74648 6.42539,176.74648 C6.08164,176.74648 6.40249,175.62148 7.13835,174.24648 L7.13835,174.24648 Z M202.07106,172.05898 L197.76335,167.37148 L202.45085,171.67919 C206.81387,175.6887 207.71309,176.74648 206.75856,176.74648 C206.54968,176.74648 204.4403,174.6371 202.07106,172.05898 L202.07106,172.05898 Z M327.71636,151.43398 L321.51335,144.87148 L328.07585,151.07449 C331.68522,154.48614 334.63835,157.43927 334.63835,157.63699 C334.63835,158.56973 333.48031,157.53199 327.71636,151.43398 L327.71636,151.43398 Z M182.70454,146.43398 L177.76335,141.12148 L183.07585,146.06267 C188.01642,150.65792 188.96276,151.74648 188.01704,151.74648 C187.81281,151.74648 185.42219,149.35585 182.70454,146.43398 L182.70454,146.43398 Z M110.88835,150.02453 C110.88835,149.76497 111.87272,148.78059 113.07585,147.83703 C115.05842,146.28219 115.10263,146.3264 113.54779,148.30898 C111.91483,150.39117 110.88835,151.05333 110.88835,150.02453 L110.88835,150.02453 Z M24.63835,146.27453 C24.63835,146.01497 25.62272,145.03059 26.82585,144.08703 C28.80842,142.53219 28.85263,142.5764 27.29779,144.55898 C25.66483,146.64117 24.63835,147.30333 24.63835,146.27453 L24.63835,146.27453 Z M318.2289,140.80898 C316.67406,138.8264 316.71827,138.78219 318.70085,140.33703 C319.90397,141.28059 320.88835,142.26497 320.88835,142.52453 C320.88835,143.55333 319.86186,142.89117 318.2289,140.80898 L318.2289,140.80898 Z M139.40397,135.89259 C140.30631,135.5315 141.38444,135.5759 141.79981,135.99119 C142.21517,136.40656 141.47689,136.70199 140.15919,136.64771 C138.703,136.58771 138.40681,136.29154 139.40397,135.89251 L139.40397,135.89259 Z M161.90397,135.89259 C162.80631,135.5315 163.88444,135.5759 164.29981,135.99119 C164.71518,136.40656 163.97689,136.70199 162.65919,136.64771 C161.203,136.58771 160.90681,136.29154 161.90397,135.89251 L161.90397,135.89259 Z M35.88835,131.27456 C35.88835,131.015 36.87272,130.03062 38.07585,129.08706 C40.05842,127.53222 40.10263,127.57643 38.54779,129.55901 C36.91483,131.6412 35.88835,132.30336 35.88835,131.27456 L35.88835,131.27456 Z M39.63835,126.27456 C39.63835,126.015 40.62272,125.03062 41.82585,124.08707 C43.80842,122.53223 43.85263,122.57644 42.29779,124.55901 C40.66483,126.6412 39.63835,127.30336 39.63835,126.27456 L39.63835,126.27456 Z M18.38835,123.07028 C18.38835,120.05207 19.08349,119.74759 20.07502,122.33148 C20.4623,123.34071 20.24123,124.49891 19.58376,124.90525 C18.92628,125.31159 18.38835,124.48585 18.38835,123.07028 L18.38835,123.07028 Z M20.88835,121.27457 C20.88835,121.015 21.87272,120.03062 23.07585,119.08707 C25.05842,117.53223 25.10263,117.57644 23.54779,119.55901 C21.91483,121.64119 20.88835,122.30336 20.88835,121.27457 L20.88835,121.27457 Z M48.38835,116.12151 C50.00303,114.40276 51.60538,112.99651 51.94913,112.99651 C52.29288,112.99651 51.25303,114.40276 49.63835,116.12151 C48.02367,117.84026 46.42132,119.24651 46.07757,119.24651 C45.73382,119.24651 46.77367,117.84026 48.38835,116.12151 L48.38835,116.12151 Z M256.90397,115.89262 C257.80631,115.53153 258.88444,115.57594 259.29981,115.99132 C259.71517,116.40669 258.97689,116.70213 257.65919,116.64785 C256.203,116.58785 255.90681,116.29167 256.90397,115.89264 L256.90397,115.89262 Z M27.76335,112.99651 C29.00771,111.62151 30.30707,110.49651 30.65082,110.49651 C30.99457,110.49651 30.25771,111.62151 29.01335,112.99651 C27.76899,114.37151 26.46963,115.49651 26.12588,115.49651 C25.78213,115.49651 26.51899,114.37151 27.76335,112.99651 L27.76335,112.99651 Z M231.51335,96.74651 C223.28484,88.49651 216.83367,81.74651 217.17742,81.74651 C217.52117,81.74651 224.53484,88.49651 232.76335,96.74651 C240.99186,104.99651 247.44302,111.74651 247.09927,111.74651 C246.75552,111.74651 239.74186,104.99651 231.51335,96.74651 L231.51335,96.74651 Z M33.38835,106.35537 C33.38835,106.14025 35.21647,104.31212 37.45085,102.29287 L41.51335,98.62151 L37.84199,102.68401 C34.41976,106.47083 33.38835,107.32107 33.38835,106.35537 L33.38835,106.35537 Z M61.51335,101.74651 C64.19865,98.99651 66.67697,96.74651 67.02072,96.74651 C67.36447,96.74651 65.44865,98.99651 62.76335,101.74651 C60.07805,104.49651 57.59973,106.74651 57.25598,106.74651 C56.91223,106.74651 58.82805,104.49651 61.51335,101.74651 L61.51335,101.74651 Z M302.23704,103.51734 C302.29704,102.06116 302.59321,101.76497 302.99224,102.76213 C303.35332,103.66448 303.30892,104.7426 302.89364,105.15797 C302.47827,105.57333 302.18284,104.83505 302.23712,103.51734 L302.23704,103.51734 Z M300.98704,97.26734 C301.04704,95.81116 301.34321,95.51497 301.74224,96.51213 C302.10332,97.41448 302.05892,98.4926 301.64364,98.90797 C301.22827,99.32333 300.93284,98.58505 300.98712,97.26734 L300.98704,97.26734 Z M254.4789,94.55901 C252.92406,92.57644 252.96827,92.53223 254.95085,94.08707 C257.03304,95.72003 257.6952,96.74651 256.6664,96.74651 C256.40684,96.74651 255.42246,95.76213 254.4789,94.55901 L254.4789,94.55901 Z M74.01335,90.49651 C75.25771,89.12151 76.55707,87.99651 76.90082,87.99651 C77.24457,87.99651 76.50771,89.12151 75.26335,90.49651 C74.01899,91.87151 72.71963,92.99651 72.37588,92.99651 C72.03213,92.99651 72.76899,91.87151 74.01335,90.49651 L74.01335,90.49651 Z M53.38835,86.12151 C55.72058,83.71526 57.91002,81.74651 58.25377,81.74651 C58.59752,81.74651 56.97058,83.71526 54.63835,86.12151 C52.30612,88.52776 50.11668,90.49651 49.77293,90.49651 C49.42918,90.49651 51.05612,88.52776 53.38835,86.12151 L53.38835,86.12151 Z M299.92835,86.74651 C299.92835,84.34026 300.1856,83.35588 300.50001,84.55901 C300.81441,85.76213 300.81441,87.73088 300.50001,88.93401 C300.1856,90.13713 299.92835,89.15276 299.92835,86.74651 L299.92835,86.74651 Z M245.79374,84.55901 L242.76335,81.12151 L246.20085,84.1519 C249.41371,86.98426 250.21159,87.99651 249.23124,87.99651 C249.00734,87.99651 247.46046,86.44963 245.79374,84.55901 L245.79374,84.55901 Z M79.63835,86.27457 C79.63835,86.015 80.62272,85.03062 81.82585,84.08707 C83.80842,82.53223 83.85263,82.57644 82.29779,84.55901 C80.66483,86.64119 79.63835,87.30336 79.63835,86.27457 L79.63835,86.27457 Z M84.63835,82.52457 C84.63835,82.265 85.62272,81.28062 86.82585,80.33707 C88.80842,78.78223 88.85263,78.82644 87.29779,80.80901 C85.66483,82.89119 84.63835,83.55336 84.63835,82.52457 L84.63835,82.52457 Z M62.76335,77.99651 C64.00771,76.62151 65.30707,75.49651 65.65082,75.49651 C65.99457,75.49651 65.25771,76.62151 64.01335,77.99651 C62.76899,79.37151 61.46963,80.49651 61.12588,80.49651 C60.78213,80.49651 61.51899,79.37151 62.76335,77.99651 L62.76335,77.99651 Z M211.9789,78.30901 C210.42406,76.32644 210.46827,76.28223 212.45085,77.83707 C214.53304,79.47003 215.1952,80.49651 214.1664,80.49651 C213.90684,80.49651 212.92246,79.51213 211.9789,78.30901 L211.9789,78.30901 Z M235.7289,75.80901 C234.17406,73.82644 234.21827,73.78223 236.20085,75.33707 C238.28304,76.97003 238.9452,77.99651 237.9164,77.99651 C237.65684,77.99651 236.67246,77.01213 235.7289,75.80901 L235.7289,75.80901 Z M67.13835,75.02457 C67.13835,74.765 68.12272,73.78062 69.32585,72.83707 C71.30842,71.28223 71.35263,71.32644 69.79779,73.30901 C68.16483,75.39119 67.13835,76.05336 67.13835,75.02457 L67.13835,75.02457 Z M198.38835,70.49651 C195.9821,69.17914 194.46316,68.07772 195.01293,68.0489 C196.33755,67.9795 203.38835,71.64545 203.38835,72.40361 C203.38835,73.22175 203.31515,73.19384 198.38835,70.49651 L198.38835,70.49651 Z M47.13835,62.52457 C47.13835,62.265 48.12272,61.28062 49.32585,60.33707 C51.30842,58.78223 51.35263,58.82644 49.79779,60.80901 C48.16483,62.89119 47.13835,63.55336 47.13835,62.52457 L47.13835,62.52457 Z M298.67835,59.24651 C298.67835,56.84026 298.9356,55.85588 299.25001,57.05901 C299.56441,58.26213 299.56441,60.23088 299.25001,61.43401 C298.9356,62.63713 298.67835,61.65276 298.67835,59.24651 L298.67835,59.24651 Z M128.15397,60.89262 C129.05631,60.53153 130.13444,60.57594 130.54981,60.99132 C130.96517,61.40669 130.22689,61.70213 128.90919,61.64785 C127.453,61.58785 127.15681,61.29167 128.15397,60.89264 L128.15397,60.89262 Z M169.32585,60.91862 C170.18522,60.57186 171.59147,60.57186 172.45085,60.91862 C173.31022,61.26539 172.6071,61.54911 170.88835,61.54911 C169.1696,61.54911 168.46647,61.26539 169.32585,60.91862 L169.32585,60.91862 Z M135.57585,59.66862 C136.43522,59.32186 137.84147,59.32186 138.70085,59.66862 C139.56022,60.01539 138.8571,60.29911 137.13835,60.29911 C135.4196,60.29911 134.71647,60.01539 135.57585,59.66862 L135.57585,59.66862 Z M156.82585,59.61432 C158.37272,59.31638 160.90397,59.31638 162.45085,59.61432 C163.99772,59.91226 162.7321,60.15603 159.63835,60.15603 C156.5446,60.15603 155.27897,59.91226 156.82585,59.61432 L156.82585,59.61432 Z M50.88835,57.52455 C50.88835,57.26498 51.87272,56.2806 53.07585,55.33705 C55.05842,53.78221 55.10263,53.82642 53.54779,55.80899 C51.91483,57.89117 50.88835,58.55334 50.88835,57.52455 L50.88835,57.52455 Z M99.63835,54.24649 C100.6696,53.58004 102.07585,53.03477 102.76335,53.03477 C103.45085,53.03477 103.1696,53.58004 102.13835,54.24649 C101.1071,54.91293 99.70085,55.45821 99.01335,55.45821 C98.32585,55.45821 98.6071,54.91293 99.63835,54.24649 L99.63835,54.24649 Z M64.01335,42.99649 C68.09531,38.87149 71.71634,35.49649 72.06009,35.49649 C72.40384,35.49649 69.34531,38.87149 65.26335,42.99649 C61.18139,47.12149 57.56036,50.49649 57.21661,50.49649 C56.87286,50.49649 59.93139,47.12149 64.01335,42.99649 L64.01335,42.99649 Z M171.90397,45.8926 C172.80631,45.53151 173.88444,45.57592 174.29981,45.9913 C174.71518,46.40667 173.97689,46.70211 172.65919,46.64783 C171.203,46.58783 170.90681,46.29165 171.90397,45.89262 L171.90397,45.8926 Z M130.65397,44.6426 C131.55631,44.28151 132.63444,44.32592 133.04981,44.7413 C133.46517,45.15667 132.72689,45.45211 131.40919,45.39783 C129.953,45.33783 129.65681,45.04165 130.65397,44.64262 L130.65397,44.6426 Z M163.07585,44.6686 C163.93522,44.32184 165.34147,44.32184 166.20085,44.6686 C167.06022,45.01537 166.3571,45.29909 164.63835,45.29909 C162.9196,45.29909 162.21647,45.01537 163.07585,44.6686 L163.07585,44.6686 Z M142.45085,43.33587 C145.02897,43.06619 149.24772,43.06619 151.82585,43.33587 C154.40397,43.60555 152.2946,43.8262 147.13835,43.8262 C141.9821,43.8262 139.87272,43.60555 142.45085,43.33587 L142.45085,43.33587 Z M288.2289,33.30896 C286.67406,31.32639 286.71827,31.28218 288.70085,32.83702 C290.78304,34.46998 291.4452,35.49646 290.4164,35.49646 C290.15684,35.49646 289.17246,34.51208 288.2289,33.30896 L288.2289,33.30896 Z M75.88835,32.52457 C75.88835,32.265 76.87272,31.28062 78.07585,30.33707 C80.05842,28.78223 80.10263,28.82644 78.54779,30.80901 C76.91483,32.89119 75.88835,33.55336 75.88835,32.52457 L75.88835,32.52457 Z M281.39459,26.43401 L279.01335,23.62151 L281.82585,26.00274 C283.37272,27.31242 284.63835,28.57805 284.63835,28.81524 C284.63835,29.81556 283.63236,29.07707 281.39459,26.43401 L281.39459,26.43401 Z M238.15397,7.14262 C239.05631,6.78153 240.13444,6.82594 240.54981,7.24132 C240.96518,7.65669 240.22689,7.95212 238.90919,7.89785 C237.453,7.83785 237.15681,7.54167 238.15397,7.14264 L238.15397,7.14262 Z M126.90397,5.89262 C127.80631,5.53153 128.88444,5.57594 129.29981,5.99132 C129.71517,6.40669 128.97689,6.70212 127.65919,6.64785 C126.203,6.58785 125.90681,6.29167 126.90397,5.89264 L126.90397,5.89262 Z M231.90397,5.89262 C232.80631,5.53153 233.88444,5.57594 234.29981,5.99132 C234.71518,6.40669 233.97689,6.70212 232.65919,6.64785 C231.203,6.58785 230.90681,6.29167 231.90397,5.89264 L231.90397,5.89262 Z M224.32585,4.66866 C225.18522,4.32189 226.59147,4.32189 227.45085,4.66866 C228.31022,5.01542 227.6071,5.29914 225.88835,5.29914 C224.1696,5.29914 223.46647,5.01542 224.32585,4.66866 L224.32585,4.66866 Z M138.15397,3.39262 C139.05631,3.03153 140.13444,3.07594 140.54981,3.49132 C140.96517,3.90669 140.22689,4.20212 138.90919,4.14785 C137.453,4.08785 137.15681,3.79167 138.15397,3.39264 L138.15397,3.39262 Z M215.57585,3.41862 C216.43522,3.07185 217.84147,3.07185 218.70085,3.41862 C219.56022,3.76538 218.8571,4.0491 217.13835,4.0491 C215.4196,4.0491 214.71647,3.76538 215.57585,3.41862 L215.57585,3.41862 Z M145.57585,2.16862 C146.43522,1.82185 147.84147,1.82185 148.70085,2.16862 C149.56022,2.51538 148.8571,2.7991 147.13835,2.7991 C145.4196,2.7991 144.71647,2.51538 145.57585,2.16862 L145.57585,2.16862 Z M201.82585,2.11432 C203.37272,1.81638 205.90397,1.81638 207.45085,2.11432 C208.99772,2.41226 207.7321,2.65603 204.63835,2.65603 C201.5446,2.65603 200.27897,2.41226 201.82585,2.11432 L201.82585,2.11432 Z M164.32585,0.81651 C169.99772,0.58489 179.27897,0.58489 184.95085,0.81651 C190.62272,1.04812 185.9821,1.23763 174.63835,1.23763 C163.2946,1.23763 158.65397,1.04812 164.32585,0.81651 L164.32585,0.81651 Z" id="path3382" fill="#E3F5FC"></path>
                    <path d="M149.34043,248.36244 C150.89531,248.06345 153.14531,248.0748 154.34043,248.38764 C155.53554,248.70051 154.26333,248.94514 151.51335,248.93127 C148.76335,248.91737 147.78554,248.66141 149.34043,248.36242 L149.34043,248.36244 Z M113.22891,230.80901 C111.67407,228.82643 111.71828,228.78222 113.70085,230.33706 C114.90397,231.28062 115.88835,232.265 115.88835,232.52456 C115.88835,233.55336 114.86187,232.8912 113.22891,230.80901 L113.22891,230.80901 Z M185.88835,232.52456 C185.88835,232.265 186.87272,231.28062 188.07585,230.33706 C190.05842,228.78222 190.10264,228.82643 188.5478,230.80901 C186.91484,232.8912 185.88835,233.55336 185.88835,232.52456 L185.88835,232.52456 Z M339.40397,197.14262 C340.30631,196.78153 341.38445,196.82593 341.79981,197.24122 C342.21517,197.65658 341.47689,197.95202 340.15919,197.89774 C338.703,197.83774 338.40681,197.54157 339.40397,197.14254 L339.40397,197.14262 Z M82.46804,184.59953 C84.36812,184.31221 87.18062,184.3199 88.71804,184.61653 C90.25546,184.91323 88.70084,185.14831 85.26335,185.13893 C81.82585,185.12893 80.56796,184.88679 82.46804,184.59947 L82.46804,184.59953 Z M261.90397,184.64263 C262.80631,184.28154 263.88444,184.32594 264.29981,184.74123 C264.71517,185.1566 263.97689,185.45203 262.65919,185.39776 C261.203,185.33776 260.90681,185.04158 261.90397,184.64256 L261.90397,184.64263 Z M250.65397,183.39263 C251.55631,183.03154 252.63444,183.07594 253.04981,183.49123 C253.46518,183.9066 252.72689,184.20203 251.40919,184.14776 C249.953,184.08776 249.65681,183.79158 250.65397,183.39256 L250.65397,183.39263 Z M366.9789,177.05898 C365.42406,175.0764 365.46827,175.03219 367.45085,176.58703 C369.53304,178.21999 370.1952,179.24648 369.1664,179.24648 C368.90684,179.24648 367.92246,178.2621 366.9789,177.05898 L366.9789,177.05898 Z M184.4789,148.30898 C182.92406,146.3264 182.96827,146.28219 184.95085,147.83703 C187.03304,149.46999 187.6952,150.49648 186.6664,150.49648 C186.40684,150.49648 185.42246,149.5121 184.4789,148.30898 L184.4789,148.30898 Z M47.13835,117.52457 C47.13835,117.265 48.12272,116.28062 49.32585,115.33707 C51.30842,113.78223 51.35263,113.82644 49.79779,115.80901 C48.16483,117.89119 47.13835,118.55336 47.13835,117.52457 L47.13835,117.52457 Z M256.90397,115.89262 C257.80631,115.53153 258.88444,115.57594 259.29981,115.99132 C259.71517,116.40669 258.97689,116.70213 257.65919,116.64785 C256.203,116.58785 255.90681,116.29167 256.90397,115.89264 L256.90397,115.89262 Z M25.88835,115.02457 C25.88835,114.765 26.87272,113.78062 28.07585,112.83707 C30.05842,111.28223 30.10263,111.32644 28.54779,113.30901 C26.91483,115.39119 25.88835,116.05336 25.88835,115.02457 L25.88835,115.02457 Z M34.63835,105.02457 C34.63835,104.765 35.62272,103.78062 36.82585,102.83707 C38.80842,101.28223 38.85263,101.32644 37.29779,103.30901 C35.66483,105.39119 34.63835,106.05336 34.63835,105.02457 L34.63835,105.02457 Z M232.68471,97.68401 L229.01335,93.62151 L233.07585,97.29287 C235.31022,99.31212 237.13835,101.14025 237.13835,101.35537 C237.13835,102.32107 236.10694,101.47082 232.68471,97.68401 L232.68471,97.68401 Z M73.38835,91.27457 C73.38835,91.015 74.37272,90.03062 75.57585,89.08707 C77.55842,87.53223 77.60263,87.57644 76.04779,89.55901 C74.41483,91.64119 73.38835,92.30336 73.38835,91.27457 L73.38835,91.27457 Z M53.38835,86.12151 C55.00303,84.40276 56.60538,82.99651 56.94913,82.99651 C57.29288,82.99651 56.25303,84.40276 54.63835,86.12151 C53.02367,87.84026 51.42132,89.24651 51.07757,89.24651 C50.73382,89.24651 51.77367,87.84026 53.38835,86.12151 L53.38835,86.12151 Z M299.73704,87.26734 C299.79704,85.81116 300.09321,85.51497 300.49224,86.51213 C300.85332,87.41448 300.80892,88.4926 300.39364,88.90797 C299.97827,89.32333 299.68284,88.58505 299.73712,87.26734 L299.73704,87.26734 Z M218.2289,83.30901 C216.67406,81.32644 216.71827,81.28223 218.70085,82.83707 C220.78304,84.47003 221.4452,85.49651 220.4164,85.49651 C220.15684,85.49651 219.17246,84.51213 218.2289,83.30901 L218.2289,83.30901 Z M135.65397,59.64262 C136.55631,59.28153 137.63444,59.32594 138.04981,59.74132 C138.46517,60.15669 137.72689,60.45213 136.40919,60.39785 C134.953,60.33785 134.65681,60.04167 135.65397,59.64264 L135.65397,59.64262 Z M159.97464,59.63022 C161.19085,59.31329 162.87835,59.33414 163.72464,59.67652 C164.57093,60.01893 163.57585,60.27823 161.51335,60.25276 C159.45085,60.22726 158.75843,59.94714 159.97464,59.63021 L159.97464,59.63022 Z M298.48704,58.51729 C298.54704,57.06112 298.84321,56.76492 299.24224,57.76209 C299.60333,58.66443 299.55893,59.74255 299.14364,60.15792 C298.72827,60.57328 298.43284,59.835 298.48712,58.51729 L298.48704,58.51729 Z M64.63835,42.37151 C68.37263,38.59026 71.7092,35.49651 72.05295,35.49651 C72.3967,35.49651 69.62263,38.59026 65.88835,42.37151 C62.15407,46.15276 58.8175,49.24651 58.47375,49.24651 C58.13,49.24651 60.90407,46.15276 64.63835,42.37151 L64.63835,42.37151 Z M130.65397,44.64262 C131.55631,44.28153 132.63444,44.32594 133.04981,44.74132 C133.46517,45.15669 132.72689,45.45213 131.40919,45.39785 C129.953,45.33785 129.65681,45.04167 130.65397,44.64264 L130.65397,44.64262 Z M163.15397,44.64262 C164.05631,44.28153 165.13444,44.32594 165.54981,44.74132 C165.96518,45.15669 165.22689,45.45213 163.90919,45.39785 C162.453,45.33785 162.15681,45.04167 163.15397,44.64264 L163.15397,44.64262 Z M145.59043,43.36243 C147.14531,43.06344 149.39531,43.07479 150.59043,43.38763 C151.78554,43.70049 150.51333,43.94512 147.76335,43.93125 C145.01335,43.91735 144.03554,43.66139 145.59043,43.3624 L145.59043,43.36243 Z M138.15397,3.39262 C139.05631,3.03153 140.13444,3.07594 140.54981,3.49132 C140.96517,3.90669 140.22689,4.20212 138.90919,4.14785 C137.453,4.08785 137.15681,3.79167 138.15397,3.39264 L138.15397,3.39262 Z M145.65397,2.14262 C146.55631,1.78153 147.63444,1.82594 148.04981,2.24132 C148.46517,2.65669 147.72689,2.95212 146.40919,2.89785 C144.953,2.83785 144.65681,2.54167 145.65397,2.14264 L145.65397,2.14262 Z M203.07585,2.16862 C203.93522,1.82185 205.34147,1.82185 206.20085,2.16862 C207.06022,2.51538 206.3571,2.7991 204.63835,2.7991 C202.9196,2.7991 202.21647,2.51538 203.07585,2.16862 L203.07585,2.16862 Z M164.32585,0.81649 C169.99772,0.58487 179.27897,0.58487 184.95085,0.81649 C190.62272,1.0481 185.9821,1.23761 174.63835,1.23761 C163.2946,1.23761 158.65397,1.0481 164.32585,0.81649 L164.32585,0.81649 Z" id="path3380" fill="#DBF3FC"></path>
                    <path d="M157.46804,0.84953 C159.36811,0.56222 162.18061,0.56989 163.71804,0.86663 C165.25546,1.16333 163.70094,1.39841 160.26335,1.38902 C156.82585,1.38002 155.56796,1.13688 157.46804,0.84956 L157.46804,0.84953 Z M181.79797,0.84453 C184.01701,0.56839 187.95451,0.56386 190.54797,0.83443 C193.14142,1.10503 191.32585,1.33096 186.51335,1.3365 C181.70085,1.3425 179.57892,1.12065 181.79797,0.84451 L181.79797,0.84453 Z" id="path3378" fill="#A4E2F9"></path>
                    <path d="M155.65397,0.89262 C156.55631,0.53153 157.63444,0.57594 158.04981,0.99132 C158.46517,1.40669 157.72689,1.70212 156.40919,1.64785 C154.953,1.58785 154.65681,1.29167 155.65397,0.89264 L155.65397,0.89262 Z M188.70085,0.88462 C189.90397,0.57021 191.87272,0.57021 193.07585,0.88462 C194.27897,1.19903 193.2946,1.45628 190.88835,1.45628 C188.4821,1.45628 187.49772,1.19903 188.70085,0.88462 L188.70085,0.88462 Z" id="path3376" fill="#6CD1F6"></path>
                </g>
            </g>
        </g>
    </g>
</svg>