<?xml version="1.0" encoding="UTF-8" standalone="no"?>
<svg width="269px" height="262px" viewBox="0 0 269 262" version="1.1" xmlns="http://www.w3.org/2000/svg" xmlns:xlink="http://www.w3.org/1999/xlink">
    <!-- Generator: Sketch 3.7.1 (28215) - http://www.bohemiancoding.com/sketch -->
    <title>Slice 1</title>
    <desc>Created with Sketch.</desc>
    <defs>
        <rect id="path-1" x="22" y="82" width="232" height="96" rx="8"></rect>
        <mask id="mask-2" maskContentUnits="userSpaceOnUse" maskUnits="objectBoundingBox" x="0" y="0" width="232" height="96" fill="white">
            <use xlink:href="#path-1"></use>
        </mask>
    </defs>
    <g id="Page-1" stroke="none" stroke-width="1" fill="none" fill-rule="evenodd">
        <g id="Group">
            <use id="Rectangle-1" stroke="#979797" mask="url(#mask-2)" stroke-width="2" fill="#FFFFFF" xlink:href="#path-1"></use>
            <path d="M83.1300101,10.9794512 C15.9867621,39.5607737 -14.4376996,116.494632 14.5100877,182.450559 C20.4274343,196.371737 28.6059385,208.460923 38.2454985,218.713209 C36.0212577,231.908741 23.0371723,245.843941 0.0351291345,260.138108 C24.1489377,261.595709 44.1919526,253.913681 60.1343564,237.394201 C96.4981728,262.67962 144.732889,268.933493 188.504216,250.238479 C255.662372,221.657156 286.071925,144.702265 257.131237,78.4006918 C227.83558,12.4370524 149.932487,-17.9601368 83.1300101,10.9794512 Z" id="Shape" fill="#3EC0D0"></path>
            <path d="M95.0464691,162.053203 L105.624801,162.053203 L105.624801,129.656586 C105.624801,123.790734 106.023616,119.492546 107.190823,116.395311 C108.373023,113.274923 110.322867,111.294246 112.679771,109.359127 C115.419747,107.81387 118.168719,107.011741 121.300763,107.011741 C125.215443,107.011741 127.956169,108.173858 129.537933,110.536928 C131.479531,113.266707 132.270413,116.777704 132.270413,121.457539 L132.270413,162.059924 L142.840499,162.059924 L142.840499,125.75498 C142.840499,119.140027 144.414017,114.428077 147.16224,111.690082 C150.30178,108.562226 153.817645,107.0095 158.515711,107.0095 C160.865119,107.0095 162.814962,107.804908 164.779799,108.967025 C166.345821,110.13661 167.919339,111.689335 168.318903,113.272682 C169.086547,115.215269 169.486111,118.343126 169.486111,122.641314 L169.486111,162.058431 L180.056946,162.058431 L180.056946,119.146002 C180.056946,111.696804 178.483428,106.634576 174.975059,103.092958 C171.835518,99.6058611 166.745385,98.0456672 160.857622,98.0456672 C152.636195,98.0456672 146.36461,101.548448 141.260233,108.974493 C140.101272,105.464244 138.135686,102.733718 135.011888,100.783662 C131.872348,98.8336062 128.348986,98.0538827 123.65092,98.0538827 C119.344922,98.0538827 115.813314,98.8410748 112.297449,100.783662 C109.165405,102.733718 106.409686,105.081851 104.459843,108.186554 L104.459843,99.5976457 L95.048718,99.5976457 L95.048718,162.050215 L95.0464691,162.053203 Z" id="Path" fill="#FFFFFF"></path>
            <path d="M191.039205,143.20535 C192.20355,149.833795 194.946795,154.883153 199.253973,157.995148 C203.552172,161.495956 209.797431,163.060147 218.011451,163.060147 C222.70849,163.060147 227.398046,162.281776 231.32135,160.703433 C235.228939,159.170526 237.964701,156.439895 240.309853,153.3279 C242.256165,150.200263 243.044867,147.088268 243.044867,143.587459 C243.044867,139.682196 242.247934,136.989553 240.677266,134.617941 C239.129046,131.925298 236.769676,129.987936 233.650788,128.805855 C230.524417,127.63867 225.444251,126.082673 218.003968,124.130414 C212.931285,122.581864 209.789948,121.804238 208.624855,121.407232 C206.678543,120.637054 205.506715,119.447524 204.318425,118.30343 C203.529723,117.510162 203.146597,115.969806 203.146597,114.802621 C203.146597,112.453356 204.318425,110.905551 206.264737,108.952547 C208.233497,107.404743 211.751226,106.618923 216.831391,106.618923 C220.738981,106.618923 224.271675,107.793556 226.217987,109.333912 C228.578105,111.263081 230.125577,113.62054 230.524417,117.121348 L240.677266,115.557902 C240.301622,111.263826 239.129046,108.15183 237.175999,105.825655 C235.605331,103.484583 232.862087,101.539027 228.953749,99.9830294 C225.053642,98.8314869 220.747212,98.0456672 216.057656,98.0456672 C212.52571,98.0456672 209.789948,98.4419289 206.678543,99.2121067 C203.94353,99.9822846 201.57518,101.156917 200.027709,102.324102 C197.667591,103.880099 196.104405,105.817462 194.932577,108.151086 C193.361909,110.5078 192.993748,113.230982 192.993748,115.954164 C192.993748,119.081056 193.767484,121.79679 195.323187,124.512523 C196.893855,126.846892 199.24649,128.799151 201.974021,130.3477 C205.100392,131.91934 210.579398,133.459695 218.40206,135.427596 C224.279158,136.976146 227.796138,138.135137 229.359324,138.913508 C231.320602,140.476954 232.477464,142.025503 232.477464,144.741236 C232.477464,147.083054 231.320602,149.43232 228.577357,151.758495 C226.217239,153.711499 222.700259,154.466035 218.003219,154.466035 C212.930537,154.466035 209.421039,153.321941 206.677795,151.368937 C203.942781,149.02712 202.363882,145.930766 201.574432,141.628496 L191.038457,143.207584 L191.039205,143.20535 Z" id="Path" fill="#FFFFFF"></path>
            <path d="M30.0392055,143.20535 C31.2035504,149.833795 33.946795,154.883153 38.2539733,157.995148 C42.5521721,161.495956 48.797431,163.060147 57.0114505,163.060147 C61.7084898,163.060147 66.3980462,162.281776 70.3213499,160.703433 C74.2289394,159.170526 76.964701,156.439895 79.3098533,153.3279 C81.2561652,150.200263 82.0448667,147.088268 82.0448667,143.587459 C82.0448667,139.682196 81.2479339,136.989553 79.6772655,134.617941 C78.1290459,131.925298 75.769676,129.987936 72.650788,128.805855 C69.5244171,127.63867 64.4442515,126.082673 57.0039676,124.130414 C51.9312848,122.581864 48.789948,121.804238 47.6248548,121.407232 C45.678543,120.637054 44.5067151,119.447524 43.3184248,118.30343 C42.5297233,117.510162 42.1465969,115.969806 42.1465969,114.802621 C42.1465969,112.453356 43.3184248,110.905551 45.2647366,108.952547 C47.2334972,107.404743 50.7512257,106.618923 55.8313914,106.618923 C59.7389809,106.618923 63.2716753,107.793556 65.2179871,109.333912 C67.5781053,111.263081 69.1255766,113.62054 69.5244171,117.121348 L79.6772655,115.557902 C79.3016221,111.263826 78.1290459,108.15183 76.1759995,105.825655 C74.6053311,103.484583 71.8620865,101.539027 67.9537487,99.9830294 C64.0536422,98.8314869 59.7472121,98.0456672 55.0576558,98.0456672 C51.5257097,98.0456672 48.789948,98.4419289 45.678543,99.2121067 C42.9435297,99.9822846 40.5751802,101.156917 39.0277089,102.324102 C36.6675907,103.880099 35.1044053,105.817462 33.9325774,108.151086 C32.361909,110.5078 31.9937485,113.230982 31.9937485,115.954164 C31.9937485,119.081056 32.7674841,121.79679 34.3231867,124.512523 C35.8938551,126.846892 38.2464903,128.799151 40.9740207,130.3477 C44.1003917,131.91934 49.5793979,133.459695 57.4020598,135.427596 C63.2791582,136.976146 66.7961384,138.135137 68.3593239,138.913508 C70.3206016,140.476954 71.4774636,142.025503 71.4774636,144.741236 C71.4774636,147.083054 70.3206016,149.43232 67.577357,151.758495 C65.2172388,153.711499 61.7002586,154.466035 57.0032193,154.466035 C51.9305365,154.466035 48.4210393,153.321941 45.6777947,151.368937 C42.9427814,149.02712 41.3638817,145.930766 40.5744319,141.628496 L30.0384572,143.207584 L30.0392055,143.20535 Z" id="Path" fill="#FFFFFF"></path>
        </g>
    </g>
</svg>