<?xml version="1.0" encoding="UTF-8" standalone="no"?>
<svg width="148px" height="148px" viewBox="0 0 148 148" version="1.1" xmlns="http://www.w3.org/2000/svg" xmlns:xlink="http://www.w3.org/1999/xlink">
    <!-- Generator: Sketch 3.7 (28169) - http://www.bohemiancoding.com/sketch -->
    <title>Slice 1</title>
    <desc>Created with Sketch.</desc>
    <defs></defs>
    <g id="Page-1" stroke="none" stroke-width="1" fill="none" fill-rule="evenodd">
        <ellipse id="Oval-1" stroke="#979797" fill="#FFFFFF" cx="74" cy="74.5" rx="64" ry="67.5"></ellipse>
        <g id="email" fill="#15A0EB">
            <g id="svg2">
                <g id="layer1">
                    <path d="M54.9534359,144.86226 C42.3125459,141.59961 30.8362659,134.86503 21.1083759,125.00109 C-5.66201408,97.85631 -7.13790408,55.59112 17.6460359,25.84968 C22.5915259,19.91495 34.1604959,10.94839 42.0348459,6.94708 C48.7067259,3.5568 64.8519459,0 73.5694459,0 C82.2869459,0 98.4321659,3.5568 105.104046,6.94708 C137.341046,23.32815 153.732926,58.57493 144.732936,92.15943 C141.140286,105.56585 135.595786,115.30206 126.030506,125.00109 C107.198046,144.09693 80.6884759,151.50454 54.9534359,144.86226 L54.9534359,144.86226 Z M111.069446,101.32911 C111.069446,100.0434 90.6449659,81.21162 89.2505259,81.21162 C88.7514859,81.21162 85.3803159,83.74287 81.7590459,86.83662 C78.1377759,89.93037 74.7299959,92.46162 74.1862159,92.46162 C73.6424259,92.46162 70.1228259,89.93037 66.3648759,86.83662 C62.6069259,83.74287 59.1038159,81.21162 58.5801759,81.21162 C58.0565459,81.21162 52.6367859,85.96747 46.5362759,91.78017 L35.4444459,102.34872 L73.2569459,102.40512 C95.0583659,102.43772 111.069446,101.98203 111.069446,101.32906 L111.069446,101.32911 Z M44.6457859,87.14912 C49.6659159,82.67916 53.3181559,78.44288 53.1821559,77.24768 C52.9082659,74.84077 36.0954459,61.04801 34.5783259,61.98564 C33.1657359,62.85867 33.3042059,94.96162 34.7205759,94.96162 C35.3536959,94.96162 39.8200359,91.44599 44.6457859,87.14912 L44.6457859,87.14912 Z M114.547106,78.71215 C114.741066,70.23103 114.413956,62.80613 113.820186,62.21236 C112.807396,61.19957 93.5694459,75.47503 93.5694459,77.23937 C93.5694459,78.72097 111.678646,94.83804 112.944446,94.48299 C113.666156,94.28055 114.343486,87.61533 114.547106,78.71215 L114.547106,78.71215 Z M94.0090259,70.44582 C104.423506,61.77462 113.400626,53.88827 113.958176,52.92059 C114.515726,51.95291 114.615956,50.03968 114.180906,48.66896 C113.409706,46.23913 112.398696,46.185 73.7921759,46.50668 L34.1944459,46.83662 L33.8159259,50.09785 C33.4855459,52.94435 35.9494959,55.44367 53.1909259,69.75093 C64.0553659,78.76644 73.4235059,86.15826 74.0090259,86.17719 C74.5945459,86.19609 83.5945459,79.11701 94.0090259,70.44582 L94.0090259,70.44582 Z" id="path3431"></path>
                </g>
            </g>
        </g>
    </g>
</svg>