<?xml version="1.0" encoding="UTF-8" standalone="no"?>
<svg width="16px" height="20px" viewBox="0 0 16 20" version="1.1" xmlns="http://www.w3.org/2000/svg" xmlns:xlink="http://www.w3.org/1999/xlink" xmlns:sketch="http://www.bohemiancoding.com/sketch/ns">
    <!-- Generator: Sketch 3.4.3 (16618) - http://www.bohemiancoding.com/sketch -->
    <title>Untitled</title>
    <desc>Created with Sketch.</desc>
    <defs></defs>
    <g id="Page-1" stroke="none" stroke-width="1" fill="none" fill-rule="evenodd" sketch:type="MSPage">
        <g id="location-start" sketch:type="MSLayerGroup" fill="#445566">
            <g id="Layer_1" sketch:type="MSShapeGroup">
                <g id="Group">
                    <path d="M8,15.4 L8,15.4 C3.8,15.4 0.3,12 0.3,7.7 C0.3,3.5 3.8,0 8,0 C10.1,0 12,0.8 13.4,2.3 C14.9,3.8 15.7,5.7 15.7,7.7 C15.7,11.9 12.2,15.4 8,15.4 L8,15.4 Z M8,3.5 C5.7,3.5 3.8,5.4 3.8,7.7 C3.8,10 5.7,11.9 8,11.9 C10.3,11.9 12.2,10 12.2,7.7 C12.2,6.6 11.8,5.5 11,4.8 C10.2,4 9.1,3.5 8,3.5 L8,3.5 Z" id="Shape"></path>
                    <path d="M1.9,12.3 C1.6,11.8 4.2,13.4 4.8,13.4 L8.1,14.3 L11.2,13.4 C11.8,13.4 14.4,11.7 14.1,12.3 L8.5,19.6 C8.2,20.1 7.7,20.1 7.3,19.6 L1.9,12.3 L1.9,12.3 Z" id="Shape"></path>
                </g>
            </g>
        </g>
    </g>
</svg>