<?xml version="1.0" encoding="UTF-8" standalone="no"?>
<svg width="104px" height="80px" viewBox="0 0 104 80" version="1.1" xmlns="http://www.w3.org/2000/svg" xmlns:xlink="http://www.w3.org/1999/xlink">
    <!-- Generator: Sketch 3.7.1 (28215) - http://www.bohemiancoding.com/sketch -->
    <title>Slice 1</title>
    <desc>Created with Sketch.</desc>
    <defs></defs>
    <g id="Page-1" stroke="none" stroke-width="1" fill="none" fill-rule="evenodd">
        <g id="camera-512px-(1)" fill="#44b6ae">
            <g id="Layer_1">
                <g id="Group">
                    <path d="M95.6,12.75 L78.725,12.75 L68.625,2.55 C68.625,2.55 68.575,2.5 68.55,2.5 L68.5,2.45 L68.5,2.45 C67,0.95 64.975,0 62.675,0 L41.675,0 C39.225,0 37.05,1.05 35.525,2.725 L35.525,2.75 L25.65,12.75 L8.4,12.75 C3.75,12.75 0,16.4 0,21.05 L0,71.575 C0,76.225 3.75,80 8.4,80 L95.6,80 C100.225,80 104,76.225 104,71.575 L104,21.05 C104,16.4 100.225,12.75 95.6,12.75 L95.6,12.75 Z M52,67.375 C39.275,67.375 28.9,56.975 28.9,44.225 C28.9,31.45 39.275,21.075 52,21.075 C64.75,21.075 75.1,31.45 75.1,44.225 C75.1,56.975 64.75,67.375 52,67.375 L52,67.375 Z M94.025,26.125 C92.1,26.125 90.525,24.55 90.525,22.6 C90.525,20.65 92.1,19.075 94.025,19.075 C95.95,19.075 97.525,20.65 97.525,22.6 C97.525,24.55 95.95,26.125 94.025,26.125 L94.025,26.125 Z" id="Shape"></path>
                    <path d="M52,26.725 C42.35,26.725 34.55,34.55 34.55,44.225 C34.55,53.875 42.35,61.725 52,61.725 C61.625,61.725 69.45,53.9 69.45,44.225 C69.45,34.55 61.625,26.725 52,26.725 L52,26.725 Z" id="Shape"></path>
                </g>
            </g>
        </g>
    </g>
</svg>