<?xml version="1.0" encoding="UTF-8" standalone="no"?>
<svg width="12px" height="20px" viewBox="0 0 12 20" version="1.1" xmlns="http://www.w3.org/2000/svg" xmlns:xlink="http://www.w3.org/1999/xlink" xmlns:sketch="http://www.bohemiancoding.com/sketch/ns">
    <!-- Generator: Sketch 3.4.3 (16618) - http://www.bohemiancoding.com/sketch -->
    <title>Untitled</title>
    <desc>Created with Sketch.</desc>
    <defs></defs>
    <g id="Page-1" stroke="none" stroke-width="1" fill="none" fill-rule="evenodd" sketch:type="MSPage">
        <g id="back" sketch:type="MSLayerGroup" fill="#44b6ae">
            <g id="Layer_1" sketch:type="MSShapeGroup">
                <g id="Group">
                    <path d="M0.7,9 C1.2,8.5 2.1,8.5 2.7,9 L11.3,17.6 C11.8,18.1 11.8,19 11.3,19.6 L11.3,19.6 C10.8,20.1 9.9,20.1 9.3,19.6 L0.7,11 C0.2,10.5 0.2,9.6 0.7,9 L0.7,9 L0.7,9 Z" id="Shape"></path>
                    <path d="M11.3,0.4 C10.8,-0.1 9.9,-0.1 9.3,0.4 L0.7,9 C0.2,9.5 0.2,10.4 0.7,11 L0.7,11 C1.2,11.5 2.1,11.5 2.7,11 L11.3,2.4 C11.8,1.8 11.8,1 11.3,0.4 L11.3,0.4 L11.3,0.4 Z" id="Shape"></path>
                </g>
            </g>
        </g>
    </g>
</svg>