<?xml version="1.0" encoding="UTF-8" standalone="no"?>
<svg width="59px" height="66px" viewBox="0 0 59 66" version="1.1" xmlns="http://www.w3.org/2000/svg" xmlns:xlink="http://www.w3.org/1999/xlink">
    <!-- Generator: Sketch 3.7 (28169) - http://www.bohemiancoding.com/sketch -->
    <title>Slice 1</title>
    <desc>Created with Sketch.</desc>
    <defs></defs>
    <g id="Page-1" stroke="none" stroke-width="1" fill="none" fill-rule="evenodd">
        <g id="start">
            <g id="svg2">
                <g id="layer1">
                    <polygon id="path3363" fill="#FDFDFD" points="0.72351 32.88217 0.72351 0.38217 29.47351 0.38217 58.22351 0.38217 58.22351 32.88217 58.22351 65.38217 29.47351 65.38217 0.72351 65.38217 0.72351 32.88217"></polygon>
                    <path d="M2.59402,62.69621 C2.22662,61.73879 2.07733,47.74834 2.26227,31.60631 L2.59851,2.25717 L6.54528,2.55873 C10.21306,2.83898 51.5027,25.7157 55.57307,29.72282 C59.77289,33.85737 56.4834,36.89509 33.56042,50.05075 C10.8822,63.06594 3.83951,65.9419 2.59402,62.69621 L2.59402,62.69621 Z" id="path3361" fill="#D9E3E8"></path>
                    <path d="M2.80684,63.29884 C2.34851,62.8405 1.97351,49.0416 1.97351,32.63461 C1.97351,7.42249 2.26055,2.69356 3.82738,2.09231 C4.89236,1.68364 16.61443,7.68211 31.37408,16.18863 C51.83201,27.97929 56.99372,31.47712 56.70771,33.35597 C56.46426,34.9552 48.49365,40.27678 31.97351,49.86977 C8.76347,63.34748 4.71808,65.21007 2.80684,63.29884 L2.80684,63.29884 Z" id="path3359" fill="#CEDBE2"></path>
                    <path d="M2.80684,63.29884 C2.34851,62.8405 1.97351,49.40938 1.97351,33.45189 C1.97351,10.334 2.3234,4.1479 3.69535,3.00928 C5.05023,1.88483 10.80143,4.68912 30.68106,16.16751 C44.57619,24.19049 56.26327,31.58429 56.65234,32.59819 C57.04141,33.61209 56.56974,34.92807 55.60413,35.5226 C42.5545,43.55743 6.25594,64.13217 5.13028,64.13217 C4.31072,64.13217 3.26518,63.75717 2.80684,63.29884 L2.80684,63.29884 Z" id="path3357" fill="#C5D4DC"></path>
                    <path d="M2.75579,62.2163 C2.32554,61.09507 1.97351,47.80853 1.97351,32.69065 C1.97351,11.87549 2.36595,4.81116 3.59029,3.58682 C4.91267,2.26444 8.39834,3.81711 22.73248,12.1136 C54.44158,30.46658 56.97385,32.0429 56.93846,33.40659 C56.90556,34.67378 8.64876,63.07157 5.15277,63.88104 C4.26469,64.08666 3.18605,63.33753 2.75579,62.2163 L2.75579,62.2163 Z" id="path3355" fill="#B6CAD4"></path>
                    <path d="M4.05684,62.04884 C3.59851,61.5905 3.22351,48.63535 3.22351,33.25961 C3.22351,9.26484 3.49572,5.19925 5.14462,4.56651 C7.04861,3.83588 52.93238,29.33496 54.7408,32.12871 C55.23157,32.88686 54.95032,34.16123 54.1158,34.96064 C52.37915,36.62423 6.79851,62.88217 5.64736,62.88217 C5.23091,62.88217 4.51518,62.50717 4.05684,62.04884 L4.05684,62.04884 Z" id="path3353" fill="#A3BBC8"></path>
                    <path d="M4.47351,32.88217 C4.47351,17.06967 4.83811,4.13217 5.28374,4.13217 C7.60225,4.13217 54.48677,32.22377 54.11085,33.3877 C53.59349,34.98953 8.34518,61.53737 6.03601,61.59391 C4.83019,61.62341 4.47351,55.06924 4.47351,32.88217 L4.47351,32.88217 Z" id="path3351" fill="#98B4C2"></path>
                    <path d="M4.47351,33.58094 C4.47351,18.84026 4.98469,6.46379 5.60946,6.07766 C7.09016,5.16253 53.35422,31.86503 52.85949,33.34924 C52.37236,34.81062 8.10087,60.36197 6.03601,60.37347 C4.83432,60.38047 4.47351,54.19323 4.47351,33.58094 L4.47351,33.58094 Z" id="path3349" fill="#8BAABB"></path>
                </g>
            </g>
        </g>
    </g>
</svg>