<?xml version="1.0" encoding="UTF-8" standalone="no"?>
<svg width="146px" height="147px" viewBox="0 0 146 147" version="1.1" xmlns="http://www.w3.org/2000/svg" xmlns:xlink="http://www.w3.org/1999/xlink">
    <!-- Generator: Sketch 3.7 (28169) - http://www.bohemiancoding.com/sketch -->
    <title>Slice 1</title>
    <desc>Created with Sketch.</desc>
    <defs></defs>
    <g id="Page-1" stroke="none" stroke-width="1" fill="none" fill-rule="evenodd">
        <ellipse id="Oval-1" stroke="#979797" fill="#FFFFFF" cx="71" cy="73.5" rx="64" ry="67.5"></ellipse>
        <g id="call" transform="translate(0.000000, 1.000000)" fill="#3EC0D0">
            <g id="svg3380">
                <path d="M64.2322926,145.180365 C33.8862926,140.080365 9.92129261,118.630365 2.20329261,89.6623655 C-4.09740739,66.0113655 3.28439261,41.0743655 22.1802926,22.1793655 C34.1922926,10.1673655 43.9302926,4.94036548 60.7002926,1.50436548 C73.9692926,-1.21373452 83.8962926,-0.325934524 97.5562926,4.80046548 C125.577293,15.3184655 145.447293,43.5374655 145.447293,72.8304655 C145.447293,83.9444655 143.111293,93.4614655 137.549993,105.004465 C132.031293,116.458465 116.626993,131.971465 105.332993,137.447465 C91.4239926,144.191365 75.8119926,147.130465 64.2339926,145.184665 L64.2322926,145.180365 Z M81.3952926,113.954365 C86.2324926,112.268065 86.2220926,111.426765 81.1880226,97.2013655 C76.9291226,85.1663655 77.1467226,85.3443655 68.4570226,86.7863655 C64.8337226,87.3876055 59.0820226,75.6773655 59.0820226,67.6993655 C59.0820226,62.0318655 59.2748926,61.7067655 63.4570226,60.3265655 C65.8632226,59.5324355 67.8320226,58.0892655 67.8320226,57.1195655 C67.8320226,56.1498555 66.0985226,49.9448655 63.9798226,43.3305655 L60.1268226,31.3125655 L56.2208226,32.0945655 C39.0008226,35.5385655 34.4338226,47.1775655 40.7248226,71.5845655 C45.1397226,88.7115655 51.0888226,102.016565 57.5398226,109.192565 C62.9393226,115.198165 63.2219226,115.334565 70.2598226,115.334565 C74.2185226,115.334565 79.2289226,114.717035 81.3938226,113.962265 L81.3952926,113.954365 Z M108.727293,93.0763655 C113.887193,89.7978655 115.792493,68.2633655 111.895293,57.2723655 C109.376693,50.1687655 98.5572926,37.7083655 92.8582926,35.3473655 C84.0029926,31.6793655 82.5632926,38.1945655 90.9053926,44.1853655 C103.894393,53.5131655 108.685393,69.1043655 103.371393,84.7543655 C101.850693,89.2333655 101.745993,90.9081655 102.899443,92.2980655 C104.547543,94.2838655 106.430843,94.5355655 108.726743,93.0769055 L108.727293,93.0763655 Z M94.7702926,80.9993655 C99.3172926,70.1113655 94.3152926,56.2953655 83.8482926,50.8503655 C80.9194926,49.3264655 80.2411926,49.3529655 78.5357926,51.0584155 C75.7248926,53.8693155 76.0141926,54.7098155 81.5577926,59.8390155 C87.2138926,65.0722155 88.9010926,70.7140155 86.8290926,77.4650155 C85.1323926,82.9934155 86.0469126,85.3346155 89.9032926,85.3346155 C92.2078926,85.3346155 93.4032926,84.2697155 94.7695926,80.9997155 L94.7702926,80.9993655 Z" id="path3392"></path>
            </g>
        </g>
    </g>
</svg>