<?xml version="1.0" encoding="UTF-8" standalone="no"?>
<svg width="20px" height="20px" viewBox="0 0 20 20" version="1.1" xmlns="http://www.w3.org/2000/svg" xmlns:xlink="http://www.w3.org/1999/xlink" xmlns:sketch="http://www.bohemiancoding.com/sketch/ns">
    <!-- Generator: Sketch 3.4.3 (16618) - http://www.bohemiancoding.com/sketch -->
    <title>Untitled</title>
    <desc>Created with Sketch.</desc>
    <defs></defs>
    <g id="Page-1" stroke="none" stroke-width="1" fill="none" fill-rule="evenodd" sketch:type="MSPage">
        <g id="clock-green" sketch:type="MSLayerGroup" fill="#537F71">
            <g id="Layer_1" sketch:type="MSShapeGroup">
                <g id="Group">
                    <path d="M10,0.5 C4.8,0.5 0.5,4.8 0.5,10 C0.5,15.2 4.8,19.5 10,19.5 C15.2,19.5 19.5,15.2 19.5,10 C19.5,4.8 15.2,0.5 10,0.5 L10,0.5 Z M10,17.6 C5.8,17.6 2.4,14.2 2.4,10 C2.4,5.8 5.9,2.5 10,2.5 C14.2,2.5 17.6,5.9 17.6,10.1 C17.6,14.3 14.2,17.6 10,17.6 L10,17.6 Z" id="Shape"></path>
                    <path d="M10.2,5.7 C10.2,5.4 9.8,5 9.4,5.5 C9.4,5.5 8,9.8 8.6,11 C9.2,12.2 10.3,12.6 11.6,13 C11.8,13.1 12.7,13.1 12.1,12.4 C11.3,11.6 10.5,11.3 10,10.3 C9.4,9.4 10.2,6 10.2,6 L10.2,5.7 L10.2,5.7 Z" id="Shape"></path>
                </g>
            </g>
        </g>
    </g>
</svg>