<?xml version="1.0" encoding="UTF-8" standalone="no"?>
<svg width="146px" height="148px" viewBox="0 0 146 148" version="1.1" xmlns="http://www.w3.org/2000/svg" xmlns:xlink="http://www.w3.org/1999/xlink">
    <!-- Generator: Sketch 3.7 (28169) - http://www.bohemiancoding.com/sketch -->
    <title>Slice 1</title>
    <desc>Created with Sketch.</desc>
    <defs></defs>
    <g id="Page-1" stroke="none" stroke-width="1" fill="none" fill-rule="evenodd">
        <ellipse id="Oval-1" stroke="#979797" fill="#FFFFFF" cx="73" cy="68.5" rx="64" ry="67.5"></ellipse>
        <g id="direction" transform="translate(0.000000, 1.000000)" fill="#FE5248">
            <g id="svg3344">
                <path d="M64.3337206,145.532675 C33.7007206,140.382675 9.90072061,118.882675 2.13172061,89.336675 C-4.03437939,65.883675 3.32482061,41.481675 22.2817206,22.525675 C34.3547206,10.452675 44.0527206,5.274675 61.1317206,1.785675 C72.7867206,-0.595225 73.0777206,-0.595225 84.7327206,1.785675 C101.353721,5.181175 111.493721,10.507775 123.184721,21.984675 C130.846021,29.505775 133.845721,33.591675 137.874721,41.993675 C144.742121,56.313675 147.265921,69.578675 145.353621,81.301675 C140.350521,111.970675 118.469621,136.505675 89.8066206,143.585675 C78.9116206,146.276875 71.9396206,146.809275 64.3326206,145.530975 L64.3337206,145.532675 Z M91.4497206,80.241675 C102.114721,63.981675 103.104721,54.004675 95.2057206,42.475675 C83.9507206,26.051675 58.2817206,27.840675 49.1797206,45.682675 C43.3788206,57.053675 44.9536206,65.697675 55.6905206,81.417675 C61.6278206,90.110775 64.2749206,95.700675 71.9085206,115.662675 C72.9830206,118.472575 73.6763206,117.381675 79.0578206,104.412675 C82.3355206,96.513775 87.9119206,85.636675 91.4498206,80.241675 L91.4497206,80.241675 Z M67.5017206,63.390675 C63.0170206,58.435175 66.4639206,50.676675 73.1502206,50.676675 C79.5518206,50.676675 82.8901206,59.315575 78.1471206,63.607675 C75.1281206,66.339775 70.0776206,66.236775 67.5021206,63.390485 L67.5017206,63.390675 Z" id="path3356"></path>
            </g>
        </g>
    </g>
</svg>