<?xml version="1.0" encoding="UTF-8" standalone="no"?>
<svg width="20px" height="20px" viewBox="0 0 20 20" version="1.1" xmlns="http://www.w3.org/2000/svg" xmlns:xlink="http://www.w3.org/1999/xlink">
    <!-- Generator: Sketch 3.7.1 (28215) - http://www.bohemiancoding.com/sketch -->
    <title>Slice 1</title>
    <desc>Created with Sketch.</desc>
    <defs></defs>
    <g id="Page-1" stroke="none" stroke-width="1" fill="none" fill-rule="evenodd">
        <g id="plus" fill="#44B6AE">
            <g id="Untitled">
                <g id="Page-1">
                    <g id="plus">
                        <g id="Layer_1">
                            <path d="M10,0.2 C4.6,0.2 0.2,4.6 0.2,10 C0.2,15.4 4.6,19.8 10,19.8 C15.4,19.8 19.8,15.4 19.8,10 C19.8,4.6 15.4,0.2 10,0.2 L10,0.2 L10,0.2 Z M14,11.3 L11.3,11.3 L11.3,14 C11.3,14.7 10.7,15.3 10,15.3 C9.3,15.3 8.7,14.7 8.7,14 L8.7,11.3 L6,11.3 C5.3,11.3 4.7,10.7 4.7,10 C4.7,9.3 5.3,8.7 6,8.7 L8.7,8.7 L8.7,6 C8.7,5.3 9.3,4.7 10,4.7 C10.7,4.7 11.3,5.3 11.3,6 L11.3,8.7 L14,8.7 C14.7,8.7 15.3,9.3 15.3,10 C15.3,10.7 14.7,11.3 14,11.3 L14,11.3 L14,11.3 Z" id="Shape"></path>
                        </g>
                    </g>
                </g>
            </g>
        </g>
    </g>
</svg>